<svg width="321" height="280" viewBox="0 0 321 280" fill="none" xmlns="http://www.w3.org/2000/svg">
<path d="M120.539 90C120.539 97.9565 117.378 105.587 111.752 111.213C106.126 116.839 98.4956 120 90.5391 120C82.5826 120 74.9519 116.839 69.3259 111.213C63.6998 105.587 60.5391 97.9565 60.5391 90C60.5391 82.0435 63.6998 74.4129 69.3259 68.7868C74.9519 63.1607 82.5826 60 90.5391 60C98.4956 60 106.126 63.1607 111.752 68.7868C117.378 74.4129 120.539 82.0435 120.539 90Z" fill="#EFEFEF"/>
<path d="M40.5391 0C29.9304 0 19.7562 4.21427 12.2548 11.7157C4.75334 19.2172 0.539063 29.3913 0.539062 40V240C0.539063 250.609 4.75334 260.783 12.2548 268.284C19.7562 275.786 29.9304 280 40.5391 280H280.539C291.148 280 301.322 275.786 308.823 268.284C316.325 260.783 320.539 250.609 320.539 240V40C320.539 29.3913 316.325 19.2172 308.823 11.7157C301.322 4.21427 291.148 0 280.539 0H40.5391ZM280.539 20C285.843 20 290.93 22.1071 294.681 25.8579C298.432 29.6086 300.539 34.6957 300.539 40V170L224.999 131.06C223.124 130.12 221 129.795 218.929 130.128C216.858 130.462 214.944 131.439 213.459 132.92L139.259 207.12L86.0591 171.68C84.1383 170.401 81.8343 169.826 79.5378 170.052C77.2414 170.278 75.0937 171.291 73.4591 172.92L20.5391 220V40C20.5391 34.6957 22.6462 29.6086 26.3969 25.8579C30.1477 22.1071 35.2347 20 40.5391 20H280.539Z" fill="#EFEFEF"/>
</svg>
