<svg width="21" height="16" viewBox="0 0 21 16" fill="none" xmlns="http://www.w3.org/2000/svg">
<path d="M1.0001 2.25C1.0001 1.65326 1.23715 1.08097 1.65911 0.65901C2.08106 0.237053 2.65336 0 3.2501 0H7.2061C7.73144 0.000142552 8.24017 0.184106 8.6441 0.52L11.0251 2.5H16.7501C17.0456 2.5 17.3382 2.5582 17.6111 2.67127C17.8841 2.78434 18.1322 2.95008 18.3411 3.15901C18.55 3.36794 18.7158 3.61598 18.8288 3.88896C18.9419 4.16194 19.0001 4.45453 19.0001 4.75V5.502H5.4221C4.92019 5.502 4.43269 5.66982 4.03713 5.97876C3.64157 6.28771 3.36067 6.72004 3.2391 7.207L1.3161 14.907C1.3591 14.736 1.3161 14.912 1.3161 14.907C1.10598 14.5573 0.99533 14.1569 0.996098 13.749L1.0001 2.25Z" fill="#B3B3B3"/>
<path d="M2.74533 15.379C2.72695 15.4526 2.7256 15.5296 2.74138 15.6038C2.75716 15.6781 2.78966 15.7479 2.83641 15.8077C2.88316 15.8676 2.94293 15.916 3.01118 15.9493C3.07944 15.9826 3.15438 15.9999 3.23033 16H17.4703C17.8607 16 18.2399 15.8695 18.5476 15.6292C18.8552 15.3889 19.0737 15.0527 19.1683 14.674L20.9313 7.62395C20.9499 7.55019 20.9514 7.47318 20.9357 7.39876C20.92 7.32434 20.8875 7.25448 20.8407 7.1945C20.794 7.13452 20.7341 7.086 20.6658 7.05264C20.5974 7.01927 20.5224 7.00194 20.4463 7.00195H5.42233C5.25502 7.00186 5.09247 7.05772 4.96056 7.16064C4.82864 7.26356 4.73493 7.40764 4.69433 7.56995L2.74533 15.38V15.379Z" fill="#B3B3B3"/>
</svg>
