<svg width="350" height="28" viewBox="0 0 350 28" fill="none" xmlns="http://www.w3.org/2000/svg">
<path d="M44.475 6.5C44.7511 6.5 44.975 6.27614 44.975 6C44.975 5.72386 44.7511 5.5 44.475 5.5V6.5ZM49.425 5.5C49.1489 5.5 48.925 5.72386 48.925 6C48.925 6.27614 49.1489 6.5 49.425 6.5V5.5ZM54.375 6.5C54.6511 6.5 54.875 6.27614 54.875 6C54.875 5.72386 54.6511 5.5 54.375 5.5V6.5ZM59.325 5.5C59.0489 5.5 58.825 5.72386 58.825 6C58.825 6.27614 59.0489 6.5 59.325 6.5V5.5ZM64.275 6.5C64.5511 6.5 64.775 6.27614 64.775 6C64.775 5.72386 64.5511 5.5 64.275 5.5V6.5ZM69.225 5.5C68.9489 5.5 68.725 5.72386 68.725 6C68.725 6.27614 68.9489 6.5 69.225 6.5V5.5ZM74.175 6.5C74.4511 6.5 74.675 6.27614 74.675 6C74.675 5.72386 74.4511 5.5 74.175 5.5V6.5ZM79.125 5.5C78.8489 5.5 78.625 5.72386 78.625 6C78.625 6.27614 78.8489 6.5 79.125 6.5V5.5ZM84.075 6.5C84.3511 6.5 84.575 6.27614 84.575 6C84.575 5.72386 84.3511 5.5 84.075 5.5V6.5ZM89.025 5.5C88.7489 5.5 88.525 5.72386 88.525 6C88.525 6.27614 88.7489 6.5 89.025 6.5V5.5ZM93.975 6.5C94.2511 6.5 94.475 6.27614 94.475 6C94.475 5.72386 94.2511 5.5 93.975 5.5V6.5ZM98.925 5.5C98.6489 5.5 98.425 5.72386 98.425 6C98.425 6.27614 98.6489 6.5 98.925 6.5V5.5ZM103.875 6.5C104.151 6.5 104.375 6.27614 104.375 6C104.375 5.72386 104.151 5.5 103.875 5.5V6.5ZM108.825 5.5C108.549 5.5 108.325 5.72386 108.325 6C108.325 6.27614 108.549 6.5 108.825 6.5V5.5ZM113.775 6.5C114.051 6.5 114.275 6.27614 114.275 6C114.275 5.72386 114.051 5.5 113.775 5.5V6.5ZM118.725 5.5C118.449 5.5 118.225 5.72386 118.225 6C118.225 6.27614 118.449 6.5 118.725 6.5V5.5ZM123.675 6.5C123.951 6.5 124.175 6.27614 124.175 6C124.175 5.72386 123.951 5.5 123.675 5.5V6.5ZM128.625 5.5C128.349 5.5 128.125 5.72386 128.125 6C128.125 6.27614 128.349 6.5 128.625 6.5V5.5ZM133.575 6.5C133.851 6.5 134.075 6.27614 134.075 6C134.075 5.72386 133.851 5.5 133.575 5.5V6.5ZM138.525 5.5C138.249 5.5 138.025 5.72386 138.025 6C138.025 6.27614 138.249 6.5 138.525 6.5V5.5ZM143.475 6.5C143.751 6.5 143.975 6.27614 143.975 6C143.975 5.72386 143.751 5.5 143.475 5.5V6.5ZM148.425 5.5C148.149 5.5 147.925 5.72386 147.925 6C147.925 6.27614 148.149 6.5 148.425 6.5V5.5ZM153.375 6.5C153.651 6.5 153.875 6.27614 153.875 6C153.875 5.72386 153.651 5.5 153.375 5.5V6.5ZM158.325 5.5C158.049 5.5 157.825 5.72386 157.825 6C157.825 6.27614 158.049 6.5 158.325 6.5V5.5ZM163.275 6.5C163.551 6.5 163.775 6.27614 163.775 6C163.775 5.72386 163.551 5.5 163.275 5.5V6.5ZM168.225 5.5C167.949 5.5 167.725 5.72386 167.725 6C167.725 6.27614 167.949 6.5 168.225 6.5V5.5ZM173.175 6.5C173.451 6.5 173.675 6.27614 173.675 6C173.675 5.72386 173.451 5.5 173.175 5.5V6.5ZM178.125 5.5C177.849 5.5 177.625 5.72386 177.625 6C177.625 6.27614 177.849 6.5 178.125 6.5V5.5ZM183.075 6.5C183.351 6.5 183.575 6.27614 183.575 6C183.575 5.72386 183.351 5.5 183.075 5.5V6.5ZM188.025 5.5C187.749 5.5 187.525 5.72386 187.525 6C187.525 6.27614 187.749 6.5 188.025 6.5V5.5ZM192.975 6.5C193.251 6.5 193.475 6.27614 193.475 6C193.475 5.72386 193.251 5.5 192.975 5.5V6.5ZM197.925 5.5C197.649 5.5 197.425 5.72386 197.425 6C197.425 6.27614 197.649 6.5 197.925 6.5V5.5ZM202.875 6.5C203.151 6.5 203.375 6.27614 203.375 6C203.375 5.72386 203.151 5.5 202.875 5.5V6.5ZM207.825 5.5C207.549 5.5 207.325 5.72386 207.325 6C207.325 6.27614 207.549 6.5 207.825 6.5V5.5ZM212.775 6.5C213.051 6.5 213.275 6.27614 213.275 6C213.275 5.72386 213.051 5.5 212.775 5.5V6.5ZM217.725 5.5C217.449 5.5 217.225 5.72386 217.225 6C217.225 6.27614 217.449 6.5 217.725 6.5V5.5ZM222.675 6.5C222.951 6.5 223.175 6.27614 223.175 6C223.175 5.72386 222.951 5.5 222.675 5.5V6.5ZM227.625 5.5C227.349 5.5 227.125 5.72386 227.125 6C227.125 6.27614 227.349 6.5 227.625 6.5V5.5ZM232.575 6.5C232.851 6.5 233.075 6.27614 233.075 6C233.075 5.72386 232.851 5.5 232.575 5.5V6.5ZM237.525 5.5C237.249 5.5 237.025 5.72386 237.025 6C237.025 6.27614 237.249 6.5 237.525 6.5V5.5ZM42 6.5H44.475V5.5H42V6.5ZM49.425 6.5H54.375V5.5H49.425V6.5ZM59.325 6.5H64.275V5.5H59.325V6.5ZM69.225 6.5H74.175V5.5H69.225V6.5ZM79.125 6.5H84.075V5.5H79.125V6.5ZM89.025 6.5H93.975V5.5H89.025V6.5ZM98.925 6.5H103.875V5.5H98.925V6.5ZM108.825 6.5H113.775V5.5H108.825V6.5ZM118.725 6.5H123.675V5.5H118.725V6.5ZM128.625 6.5H133.575V5.5H128.625V6.5ZM138.525 6.5H143.475V5.5H138.525V6.5ZM148.425 6.5H153.375V5.5H148.425V6.5ZM158.325 6.5H163.275V5.5H158.325V6.5ZM168.225 6.5H173.175V5.5H168.225V6.5ZM178.125 6.5H183.075V5.5H178.125V6.5ZM188.025 6.5H192.975V5.5H188.025V6.5ZM197.925 6.5H202.875V5.5H197.925V6.5ZM207.825 6.5H212.775V5.5H207.825V6.5ZM217.725 6.5H222.675V5.5H217.725V6.5ZM227.625 6.5H232.575V5.5H227.625V6.5ZM237.525 6.5H240V5.5H237.525V6.5Z" fill="#62C6B7"/>
<path d="M0.972656 22.2383V16.207H2.23828C2.84505 16.207 3.32422 16.2669 3.67578 16.3867C4.05339 16.5039 4.39583 16.7031 4.70312 16.9844C5.32552 17.5521 5.63672 18.2982 5.63672 19.2227C5.63672 20.1497 5.3125 20.8997 4.66406 21.4727C4.33854 21.7591 3.9974 21.9583 3.64062 22.0703C3.30729 22.1823 2.83464 22.2383 2.22266 22.2383H0.972656ZM1.88281 21.3828H2.29297C2.70182 21.3828 3.04167 21.3398 3.3125 21.2539C3.58333 21.1628 3.82812 21.0182 4.04688 20.8203C4.49479 20.4115 4.71875 19.8789 4.71875 19.2227C4.71875 18.5612 4.4974 18.0247 4.05469 17.6133C3.65625 17.2461 3.06901 17.0625 2.29297 17.0625H1.88281V21.3828ZM10.082 20.543H7.35547C7.37891 20.8555 7.48047 21.1042 7.66016 21.2891C7.83984 21.4714 8.07031 21.5625 8.35156 21.5625C8.57031 21.5625 8.7513 21.5104 8.89453 21.4062C9.03516 21.3021 9.19531 21.1094 9.375 20.8281L10.1172 21.2422C10.0026 21.4375 9.88151 21.6055 9.75391 21.7461C9.6263 21.8841 9.48958 21.9987 9.34375 22.0898C9.19792 22.1784 9.04036 22.2435 8.87109 22.2852C8.70182 22.3268 8.51823 22.3477 8.32031 22.3477C7.7526 22.3477 7.29688 22.1654 6.95312 21.8008C6.60938 21.4336 6.4375 20.9466 6.4375 20.3398C6.4375 19.7383 6.60417 19.2513 6.9375 18.8789C7.27344 18.5117 7.71875 18.3281 8.27344 18.3281C8.83333 18.3281 9.27604 18.5065 9.60156 18.8633C9.92448 19.2174 10.0859 19.7083 10.0859 20.3359L10.082 20.543ZM9.17969 19.8242C9.05729 19.3555 8.76172 19.1211 8.29297 19.1211C8.1862 19.1211 8.08594 19.138 7.99219 19.1719C7.89844 19.2031 7.8125 19.25 7.73438 19.3125C7.65885 19.3724 7.59375 19.4453 7.53906 19.5312C7.48438 19.6172 7.44271 19.7148 7.41406 19.8242H9.17969ZM11.9258 15.6406V22.2383H11.0469V15.6406H11.9258ZM13.918 18.4336V22.2383H13.0391V18.4336H13.918ZM12.9062 16.8516C12.9062 16.6979 12.9622 16.5651 13.0742 16.4531C13.1862 16.3411 13.3203 16.2852 13.4766 16.2852C13.6354 16.2852 13.7708 16.3411 13.8828 16.4531C13.9948 16.5625 14.0508 16.6966 14.0508 16.8555C14.0508 17.0143 13.9948 17.1497 13.8828 17.2617C13.7734 17.3737 13.6393 17.4297 13.4805 17.4297C13.3216 17.4297 13.1862 17.3737 13.0742 17.2617C12.9622 17.1497 12.9062 17.013 12.9062 16.8516ZM15.5039 18.4336L16.4883 20.5703L17.4688 18.4336H18.457L16.4805 22.5L14.5195 18.4336H15.5039ZM22.3789 20.543H19.6523C19.6758 20.8555 19.7773 21.1042 19.957 21.2891C20.1367 21.4714 20.3672 21.5625 20.6484 21.5625C20.8672 21.5625 21.0482 21.5104 21.1914 21.4062C21.332 21.3021 21.4922 21.1094 21.6719 20.8281L22.4141 21.2422C22.2995 21.4375 22.1784 21.6055 22.0508 21.7461C21.9232 21.8841 21.7865 21.9987 21.6406 22.0898C21.4948 22.1784 21.3372 22.2435 21.168 22.2852C20.9987 22.3268 20.8151 22.3477 20.6172 22.3477C20.0495 22.3477 19.5938 22.1654 19.25 21.8008C18.9062 21.4336 18.7344 20.9466 18.7344 20.3398C18.7344 19.7383 18.901 19.2513 19.2344 18.8789C19.5703 18.5117 20.0156 18.3281 20.5703 18.3281C21.1302 18.3281 21.5729 18.5065 21.8984 18.8633C22.2214 19.2174 22.3828 19.7083 22.3828 20.3359L22.3789 20.543ZM21.4766 19.8242C21.3542 19.3555 21.0586 19.1211 20.5898 19.1211C20.4831 19.1211 20.3828 19.138 20.2891 19.1719C20.1953 19.2031 20.1094 19.25 20.0312 19.3125C19.9557 19.3724 19.8906 19.4453 19.8359 19.5312C19.7812 19.6172 19.7396 19.7148 19.7109 19.8242H21.4766ZM23.3438 18.4336H24.2227V18.7734C24.3841 18.6042 24.5273 18.4883 24.6523 18.4258C24.7799 18.3607 24.931 18.3281 25.1055 18.3281C25.3372 18.3281 25.5794 18.4036 25.832 18.5547L25.4297 19.3594C25.263 19.2396 25.1003 19.1797 24.9414 19.1797C24.4622 19.1797 24.2227 19.5417 24.2227 20.2656V22.2383H23.3438V18.4336ZM27.8867 21.5312L26.1758 18.4336H27.1953L28.3594 20.6211L29.4453 18.4336H30.4375L27.4062 24.3086H26.4023L27.8867 21.5312ZM38.1328 16.5312V17.6094C37.6068 17.1693 37.0625 16.9492 36.5 16.9492C35.8802 16.9492 35.3581 17.1719 34.9336 17.6172C34.5065 18.0599 34.293 18.6016 34.293 19.2422C34.293 19.875 34.5065 20.4089 34.9336 20.8438C35.3607 21.2786 35.8841 21.4961 36.5039 21.4961C36.8242 21.4961 37.0964 21.444 37.3203 21.3398C37.4453 21.2878 37.5742 21.2174 37.707 21.1289C37.8424 21.0404 37.9844 20.9336 38.1328 20.8086V21.9062C37.612 22.2005 37.0651 22.3477 36.4922 22.3477C35.6302 22.3477 34.8945 22.0469 34.2852 21.4453C33.6784 20.8385 33.375 20.1068 33.375 19.25C33.375 18.4818 33.6289 17.7969 34.1367 17.1953C34.7617 16.4583 35.5703 16.0898 36.5625 16.0898C37.1042 16.0898 37.6276 16.237 38.1328 16.5312ZM41.9219 18.4336H42.8047V22.2383H41.9219V21.8398C41.5599 22.1784 41.1706 22.3477 40.7539 22.3477C40.2279 22.3477 39.793 22.1576 39.4492 21.7773C39.1081 21.3893 38.9375 20.9049 38.9375 20.3242C38.9375 19.7539 39.1081 19.2786 39.4492 18.8984C39.7904 18.5182 40.2174 18.3281 40.7305 18.3281C41.1732 18.3281 41.5703 18.5104 41.9219 18.875V18.4336ZM39.8359 20.3242C39.8359 20.6888 39.9336 20.9857 40.1289 21.2148C40.3294 21.4466 40.582 21.5625 40.8867 21.5625C41.2122 21.5625 41.4753 21.4505 41.6758 21.2266C41.8763 20.9948 41.9766 20.7005 41.9766 20.3438C41.9766 19.987 41.8763 19.6927 41.6758 19.4609C41.4753 19.2344 41.2148 19.1211 40.8945 19.1211C40.5924 19.1211 40.3398 19.2357 40.1367 19.4648C39.9362 19.6966 39.8359 19.9831 39.8359 20.3242ZM44.793 15.6406V22.2383H43.9141V15.6406H44.793ZM48.8672 18.5977V19.7656C48.6667 19.5208 48.487 19.3529 48.3281 19.2617C48.1719 19.168 47.9883 19.1211 47.7773 19.1211C47.4466 19.1211 47.1719 19.237 46.9531 19.4688C46.7344 19.7005 46.625 19.9909 46.625 20.3398C46.625 20.6966 46.7305 20.9896 46.9414 21.2188C47.1549 21.4479 47.4271 21.5625 47.7578 21.5625C47.9688 21.5625 48.1549 21.5169 48.3164 21.4258C48.4727 21.3372 48.6562 21.1654 48.8672 20.9102V22.0703C48.5104 22.2552 48.1536 22.3477 47.7969 22.3477C47.2083 22.3477 46.7161 22.1576 46.3203 21.7773C45.9245 21.3945 45.7266 20.9193 45.7266 20.3516C45.7266 19.7839 45.9271 19.3047 46.3281 18.9141C46.7292 18.5234 47.2214 18.3281 47.8047 18.3281C48.1797 18.3281 48.5339 18.418 48.8672 18.5977ZM50.5977 18.4336V20.6172C50.5977 21.2474 50.8464 21.5625 51.3438 21.5625C51.8411 21.5625 52.0898 21.2474 52.0898 20.6172V18.4336H52.9688V20.6367C52.9688 20.9414 52.931 21.2044 52.8555 21.4258C52.7826 21.6237 52.6562 21.8021 52.4766 21.9609C52.1797 22.2188 51.8021 22.3477 51.3438 22.3477C50.888 22.3477 50.5117 22.2188 50.2148 21.9609C50.0326 21.8021 49.9036 21.6237 49.8281 21.4258C49.7552 21.2487 49.7188 20.9857 49.7188 20.6367V18.4336H50.5977ZM54.957 15.6406V22.2383H54.0781V15.6406H54.957ZM58.875 18.4336H59.7578V22.2383H58.875V21.8398C58.513 22.1784 58.1237 22.3477 57.707 22.3477C57.181 22.3477 56.7461 22.1576 56.4023 21.7773C56.0612 21.3893 55.8906 20.9049 55.8906 20.3242C55.8906 19.7539 56.0612 19.2786 56.4023 18.8984C56.7435 18.5182 57.1706 18.3281 57.6836 18.3281C58.1263 18.3281 58.5234 18.5104 58.875 18.875V18.4336ZM56.7891 20.3242C56.7891 20.6888 56.8867 20.9857 57.082 21.2148C57.2826 21.4466 57.5352 21.5625 57.8398 21.5625C58.1654 21.5625 58.4284 21.4505 58.6289 21.2266C58.8294 20.9948 58.9297 20.7005 58.9297 20.3438C58.9297 19.987 58.8294 19.6927 58.6289 19.4609C58.4284 19.2344 58.168 19.1211 57.8477 19.1211C57.5456 19.1211 57.293 19.2357 57.0898 19.4648C56.8893 19.6966 56.7891 19.9831 56.7891 20.3242ZM61.7734 19.2539V22.2383H60.8945V19.2539H60.5195V18.4336H60.8945V17.0391H61.7734V18.4336H62.457V19.2539H61.7734ZM62.9297 20.3086C62.9297 19.7591 63.1263 19.2917 63.5195 18.9062C63.9128 18.5208 64.3919 18.3281 64.957 18.3281C65.5247 18.3281 66.0065 18.5221 66.4023 18.9102C66.793 19.2982 66.9883 19.7747 66.9883 20.3398C66.9883 20.9102 66.7917 21.388 66.3984 21.7734C66.0026 22.1562 65.5169 22.3477 64.9414 22.3477C64.3711 22.3477 63.8932 22.1523 63.5078 21.7617C63.1224 21.3763 62.9297 20.8919 62.9297 20.3086ZM63.8281 20.3242C63.8281 20.7044 63.9297 21.0052 64.1328 21.2266C64.3411 21.4505 64.6159 21.5625 64.957 21.5625C65.3008 21.5625 65.5755 21.4518 65.7812 21.2305C65.987 21.0091 66.0898 20.7135 66.0898 20.3438C66.0898 19.974 65.987 19.6784 65.7812 19.457C65.5729 19.2331 65.2982 19.1211 64.957 19.1211C64.6211 19.1211 64.349 19.2331 64.1406 19.457C63.9323 19.681 63.8281 19.9701 63.8281 20.3242ZM67.9219 18.4336H68.8008V18.7734C68.9622 18.6042 69.1055 18.4883 69.2305 18.4258C69.3581 18.3607 69.5091 18.3281 69.6836 18.3281C69.9154 18.3281 70.1576 18.4036 70.4102 18.5547L70.0078 19.3594C69.8411 19.2396 69.6784 19.1797 69.5195 19.1797C69.0404 19.1797 68.8008 19.5417 68.8008 20.2656V22.2383H67.9219V18.4336Z" fill="#EFEFEF"/>
<rect x="30.75" width="11" height="11.2383" rx="5.5" fill="#62C6B7"/>
<path d="M35.7666 6.69434C35.8252 6.75293 35.9248 6.75293 35.9834 6.69434L37.7061 4.97168C37.7646 4.91309 37.7646 4.81348 37.7061 4.75488L37.4951 4.54395C37.4365 4.48535 37.3428 4.48535 37.2842 4.54395L35.8779 5.9502L35.2158 5.29395C35.1572 5.23535 35.0635 5.23535 35.0049 5.29395L34.7939 5.50488C34.7354 5.56348 34.7354 5.66309 34.7939 5.72168L35.7666 6.69434Z" fill="white"/>
<path d="M122.473 22.2383V16.207H123.738C124.345 16.207 124.824 16.2669 125.176 16.3867C125.553 16.5039 125.896 16.7031 126.203 16.9844C126.826 17.5521 127.137 18.2982 127.137 19.2227C127.137 20.1497 126.812 20.8997 126.164 21.4727C125.839 21.7591 125.497 21.9583 125.141 22.0703C124.807 22.1823 124.335 22.2383 123.723 22.2383H122.473ZM123.383 21.3828H123.793C124.202 21.3828 124.542 21.3398 124.812 21.2539C125.083 21.1628 125.328 21.0182 125.547 20.8203C125.995 20.4115 126.219 19.8789 126.219 19.2227C126.219 18.5612 125.997 18.0247 125.555 17.6133C125.156 17.2461 124.569 17.0625 123.793 17.0625H123.383V21.3828ZM131.582 20.543H128.855C128.879 20.8555 128.98 21.1042 129.16 21.2891C129.34 21.4714 129.57 21.5625 129.852 21.5625C130.07 21.5625 130.251 21.5104 130.395 21.4062C130.535 21.3021 130.695 21.1094 130.875 20.8281L131.617 21.2422C131.503 21.4375 131.382 21.6055 131.254 21.7461C131.126 21.8841 130.99 21.9987 130.844 22.0898C130.698 22.1784 130.54 22.2435 130.371 22.2852C130.202 22.3268 130.018 22.3477 129.82 22.3477C129.253 22.3477 128.797 22.1654 128.453 21.8008C128.109 21.4336 127.938 20.9466 127.938 20.3398C127.938 19.7383 128.104 19.2513 128.438 18.8789C128.773 18.5117 129.219 18.3281 129.773 18.3281C130.333 18.3281 130.776 18.5065 131.102 18.8633C131.424 19.2174 131.586 19.7083 131.586 20.3359L131.582 20.543ZM130.68 19.8242C130.557 19.3555 130.262 19.1211 129.793 19.1211C129.686 19.1211 129.586 19.138 129.492 19.1719C129.398 19.2031 129.312 19.25 129.234 19.3125C129.159 19.3724 129.094 19.4453 129.039 19.5312C128.984 19.6172 128.943 19.7148 128.914 19.8242H130.68ZM133.426 15.6406V22.2383H132.547V15.6406H133.426ZM135.418 18.4336V22.2383H134.539V18.4336H135.418ZM134.406 16.8516C134.406 16.6979 134.462 16.5651 134.574 16.4531C134.686 16.3411 134.82 16.2852 134.977 16.2852C135.135 16.2852 135.271 16.3411 135.383 16.4531C135.495 16.5625 135.551 16.6966 135.551 16.8555C135.551 17.0143 135.495 17.1497 135.383 17.2617C135.273 17.3737 135.139 17.4297 134.98 17.4297C134.822 17.4297 134.686 17.3737 134.574 17.2617C134.462 17.1497 134.406 17.013 134.406 16.8516ZM137.004 18.4336L137.988 20.5703L138.969 18.4336H139.957L137.98 22.5L136.02 18.4336H137.004ZM143.879 20.543H141.152C141.176 20.8555 141.277 21.1042 141.457 21.2891C141.637 21.4714 141.867 21.5625 142.148 21.5625C142.367 21.5625 142.548 21.5104 142.691 21.4062C142.832 21.3021 142.992 21.1094 143.172 20.8281L143.914 21.2422C143.799 21.4375 143.678 21.6055 143.551 21.7461C143.423 21.8841 143.286 21.9987 143.141 22.0898C142.995 22.1784 142.837 22.2435 142.668 22.2852C142.499 22.3268 142.315 22.3477 142.117 22.3477C141.549 22.3477 141.094 22.1654 140.75 21.8008C140.406 21.4336 140.234 20.9466 140.234 20.3398C140.234 19.7383 140.401 19.2513 140.734 18.8789C141.07 18.5117 141.516 18.3281 142.07 18.3281C142.63 18.3281 143.073 18.5065 143.398 18.8633C143.721 19.2174 143.883 19.7083 143.883 20.3359L143.879 20.543ZM142.977 19.8242C142.854 19.3555 142.559 19.1211 142.09 19.1211C141.983 19.1211 141.883 19.138 141.789 19.1719C141.695 19.2031 141.609 19.25 141.531 19.3125C141.456 19.3724 141.391 19.4453 141.336 19.5312C141.281 19.6172 141.24 19.7148 141.211 19.8242H142.977ZM144.844 18.4336H145.723V18.7734C145.884 18.6042 146.027 18.4883 146.152 18.4258C146.28 18.3607 146.431 18.3281 146.605 18.3281C146.837 18.3281 147.079 18.4036 147.332 18.5547L146.93 19.3594C146.763 19.2396 146.6 19.1797 146.441 19.1797C145.962 19.1797 145.723 19.5417 145.723 20.2656V22.2383H144.844V18.4336ZM149.387 21.5312L147.676 18.4336H148.695L149.859 20.6211L150.945 18.4336H151.938L148.906 24.3086H147.902L149.387 21.5312ZM156.84 17.0625V22.2383H155.93V17.0625H154.543V16.207H158.223V17.0625H156.84ZM159.707 21.5312L157.996 18.4336H159.016L160.18 20.6211L161.266 18.4336H162.258L159.227 24.3086H158.223L159.707 21.5312ZM163.738 24.3086H162.859V18.4336H163.738V18.8477C164.085 18.5013 164.478 18.3281 164.918 18.3281C165.441 18.3281 165.872 18.5208 166.211 18.9062C166.555 19.2891 166.727 19.7721 166.727 20.3555C166.727 20.9258 166.556 21.401 166.215 21.7812C165.876 22.1589 165.449 22.3477 164.934 22.3477C164.488 22.3477 164.09 22.1693 163.738 21.8125V24.3086ZM165.828 20.3594C165.828 19.9948 165.729 19.6979 165.531 19.4688C165.331 19.237 165.078 19.1211 164.773 19.1211C164.451 19.1211 164.189 19.2331 163.988 19.457C163.788 19.681 163.688 19.9753 163.688 20.3398C163.688 20.6966 163.788 20.9909 163.988 21.2227C164.186 21.4492 164.447 21.5625 164.77 21.5625C165.074 21.5625 165.326 21.4479 165.523 21.2188C165.727 20.9896 165.828 20.7031 165.828 20.3594ZM171.121 20.543H168.395C168.418 20.8555 168.52 21.1042 168.699 21.2891C168.879 21.4714 169.109 21.5625 169.391 21.5625C169.609 21.5625 169.79 21.5104 169.934 21.4062C170.074 21.3021 170.234 21.1094 170.414 20.8281L171.156 21.2422C171.042 21.4375 170.921 21.6055 170.793 21.7461C170.665 21.8841 170.529 21.9987 170.383 22.0898C170.237 22.1784 170.079 22.2435 169.91 22.2852C169.741 22.3268 169.557 22.3477 169.359 22.3477C168.792 22.3477 168.336 22.1654 167.992 21.8008C167.648 21.4336 167.477 20.9466 167.477 20.3398C167.477 19.7383 167.643 19.2513 167.977 18.8789C168.312 18.5117 168.758 18.3281 169.312 18.3281C169.872 18.3281 170.315 18.5065 170.641 18.8633C170.964 19.2174 171.125 19.7083 171.125 20.3359L171.121 20.543ZM170.219 19.8242C170.096 19.3555 169.801 19.1211 169.332 19.1211C169.225 19.1211 169.125 19.138 169.031 19.1719C168.938 19.2031 168.852 19.25 168.773 19.3125C168.698 19.3724 168.633 19.4453 168.578 19.5312C168.523 19.6172 168.482 19.7148 168.453 19.8242H170.219Z" fill="#EFEFEF"/>
<rect x="141.25" width="11" height="11.2383" rx="5.5" fill="#62C6B7"/>
<path d="M146.267 6.69434C146.325 6.75293 146.425 6.75293 146.483 6.69434L148.206 4.97168C148.265 4.91309 148.265 4.81348 148.206 4.75488L147.995 4.54395C147.937 4.48535 147.843 4.48535 147.784 4.54395L146.378 5.9502L145.716 5.29395C145.657 5.23535 145.563 5.23535 145.505 5.29395L145.294 5.50488C145.235 5.56348 145.235 5.66309 145.294 5.72168L146.267 6.69434Z" fill="white"/>
<path d="M222.172 19.1953C222.172 18.3464 222.483 17.6172 223.105 17.0078C223.725 16.3984 224.47 16.0938 225.34 16.0938C226.199 16.0938 226.936 16.401 227.551 17.0156C228.168 17.6302 228.477 18.3685 228.477 19.2305C228.477 20.0977 228.167 20.8333 227.547 21.4375C226.924 22.0443 226.173 22.3477 225.293 22.3477C224.514 22.3477 223.815 22.0781 223.195 21.5391C222.513 20.9427 222.172 20.1615 222.172 19.1953ZM223.09 19.207C223.09 19.8737 223.314 20.4219 223.762 20.8516C224.207 21.2812 224.721 21.4961 225.305 21.4961C225.938 21.4961 226.471 21.2773 226.906 20.8398C227.341 20.3971 227.559 19.8581 227.559 19.2227C227.559 18.5794 227.344 18.0404 226.914 17.6055C226.487 17.168 225.958 16.9492 225.328 16.9492C224.701 16.9492 224.171 17.168 223.738 17.6055C223.306 18.0378 223.09 18.5716 223.09 19.207ZM229.453 18.4336H230.332V18.7734C230.493 18.6042 230.637 18.4883 230.762 18.4258C230.889 18.3607 231.04 18.3281 231.215 18.3281C231.447 18.3281 231.689 18.4036 231.941 18.5547L231.539 19.3594C231.372 19.2396 231.21 19.1797 231.051 19.1797C230.572 19.1797 230.332 19.5417 230.332 20.2656V22.2383H229.453V18.4336ZM235.195 15.6406H236.078V22.2383H235.195V21.8398C234.849 22.1784 234.457 22.3477 234.02 22.3477C233.499 22.3477 233.066 22.1576 232.723 21.7773C232.382 21.3893 232.211 20.9049 232.211 20.3242C232.211 19.7565 232.382 19.2826 232.723 18.9023C233.061 18.5195 233.487 18.3281 234 18.3281C234.445 18.3281 234.844 18.5104 235.195 18.875V15.6406ZM233.109 20.3242C233.109 20.6888 233.207 20.9857 233.402 21.2148C233.603 21.4466 233.855 21.5625 234.16 21.5625C234.486 21.5625 234.749 21.4505 234.949 21.2266C235.15 20.9948 235.25 20.7005 235.25 20.3438C235.25 19.987 235.15 19.6927 234.949 19.4609C234.749 19.2344 234.488 19.1211 234.168 19.1211C233.866 19.1211 233.613 19.2357 233.41 19.4648C233.21 19.6966 233.109 19.9831 233.109 20.3242ZM240.652 20.543H237.926C237.949 20.8555 238.051 21.1042 238.23 21.2891C238.41 21.4714 238.641 21.5625 238.922 21.5625C239.141 21.5625 239.322 21.5104 239.465 21.4062C239.605 21.3021 239.766 21.1094 239.945 20.8281L240.688 21.2422C240.573 21.4375 240.452 21.6055 240.324 21.7461C240.197 21.8841 240.06 21.9987 239.914 22.0898C239.768 22.1784 239.611 22.2435 239.441 22.2852C239.272 22.3268 239.089 22.3477 238.891 22.3477C238.323 22.3477 237.867 22.1654 237.523 21.8008C237.18 21.4336 237.008 20.9466 237.008 20.3398C237.008 19.7383 237.174 19.2513 237.508 18.8789C237.844 18.5117 238.289 18.3281 238.844 18.3281C239.404 18.3281 239.846 18.5065 240.172 18.8633C240.495 19.2174 240.656 19.7083 240.656 20.3359L240.652 20.543ZM239.75 19.8242C239.628 19.3555 239.332 19.1211 238.863 19.1211C238.757 19.1211 238.656 19.138 238.562 19.1719C238.469 19.2031 238.383 19.25 238.305 19.3125C238.229 19.3724 238.164 19.4453 238.109 19.5312C238.055 19.6172 238.013 19.7148 237.984 19.8242H239.75ZM241.617 18.4336H242.496V18.7734C242.658 18.6042 242.801 18.4883 242.926 18.4258C243.053 18.3607 243.204 18.3281 243.379 18.3281C243.611 18.3281 243.853 18.4036 244.105 18.5547L243.703 19.3594C243.536 19.2396 243.374 19.1797 243.215 19.1797C242.736 19.1797 242.496 19.5417 242.496 20.2656V22.2383H241.617V18.4336ZM247.246 22.2383V16.207H248.512C249.118 16.207 249.598 16.2669 249.949 16.3867C250.327 16.5039 250.669 16.7031 250.977 16.9844C251.599 17.5521 251.91 18.2982 251.91 19.2227C251.91 20.1497 251.586 20.8997 250.938 21.4727C250.612 21.7591 250.271 21.9583 249.914 22.0703C249.581 22.1823 249.108 22.2383 248.496 22.2383H247.246ZM248.156 21.3828H248.566C248.975 21.3828 249.315 21.3398 249.586 21.2539C249.857 21.1628 250.102 21.0182 250.32 20.8203C250.768 20.4115 250.992 19.8789 250.992 19.2227C250.992 18.5612 250.771 18.0247 250.328 17.6133C249.93 17.2461 249.342 17.0625 248.566 17.0625H248.156V21.3828ZM256.355 20.543H253.629C253.652 20.8555 253.754 21.1042 253.934 21.2891C254.113 21.4714 254.344 21.5625 254.625 21.5625C254.844 21.5625 255.025 21.5104 255.168 21.4062C255.309 21.3021 255.469 21.1094 255.648 20.8281L256.391 21.2422C256.276 21.4375 256.155 21.6055 256.027 21.7461C255.9 21.8841 255.763 21.9987 255.617 22.0898C255.471 22.1784 255.314 22.2435 255.145 22.2852C254.975 22.3268 254.792 22.3477 254.594 22.3477C254.026 22.3477 253.57 22.1654 253.227 21.8008C252.883 21.4336 252.711 20.9466 252.711 20.3398C252.711 19.7383 252.878 19.2513 253.211 18.8789C253.547 18.5117 253.992 18.3281 254.547 18.3281C255.107 18.3281 255.549 18.5065 255.875 18.8633C256.198 19.2174 256.359 19.7083 256.359 20.3359L256.355 20.543ZM255.453 19.8242C255.331 19.3555 255.035 19.1211 254.566 19.1211C254.46 19.1211 254.359 19.138 254.266 19.1719C254.172 19.2031 254.086 19.25 254.008 19.3125C253.932 19.3724 253.867 19.4453 253.812 19.5312C253.758 19.6172 253.716 19.7148 253.688 19.8242H255.453ZM258.297 19.2539V22.2383H257.418V19.2539H257.043V18.4336H257.418V17.0391H258.297V18.4336H258.98V19.2539H258.297ZM262.453 18.4336H263.336V22.2383H262.453V21.8398C262.091 22.1784 261.702 22.3477 261.285 22.3477C260.759 22.3477 260.324 22.1576 259.98 21.7773C259.639 21.3893 259.469 20.9049 259.469 20.3242C259.469 19.7539 259.639 19.2786 259.98 18.8984C260.322 18.5182 260.749 18.3281 261.262 18.3281C261.704 18.3281 262.102 18.5104 262.453 18.875V18.4336ZM260.367 20.3242C260.367 20.6888 260.465 20.9857 260.66 21.2148C260.861 21.4466 261.113 21.5625 261.418 21.5625C261.743 21.5625 262.007 21.4505 262.207 21.2266C262.408 20.9948 262.508 20.7005 262.508 20.3438C262.508 19.987 262.408 19.6927 262.207 19.4609C262.007 19.2344 261.746 19.1211 261.426 19.1211C261.124 19.1211 260.871 19.2357 260.668 19.4648C260.467 19.6966 260.367 19.9831 260.367 20.3242ZM265.324 18.4336V22.2383H264.445V18.4336H265.324ZM264.312 16.8516C264.312 16.6979 264.368 16.5651 264.48 16.4531C264.592 16.3411 264.727 16.2852 264.883 16.2852C265.042 16.2852 265.177 16.3411 265.289 16.4531C265.401 16.5625 265.457 16.6966 265.457 16.8555C265.457 17.0143 265.401 17.1497 265.289 17.2617C265.18 17.3737 265.046 17.4297 264.887 17.4297C264.728 17.4297 264.592 17.3737 264.48 17.2617C264.368 17.1497 264.312 17.013 264.312 16.8516ZM267.316 15.6406V22.2383H266.438V15.6406H267.316Z" fill="#2F626E"/>
<rect x="240.25" width="11" height="11.2383" rx="5.5" fill="#62C6B7"/>
<path d="M245.267 6.69434C245.325 6.75293 245.425 6.75293 245.483 6.69434L247.206 4.97168C247.265 4.91309 247.265 4.81348 247.206 4.75488L246.995 4.54395C246.937 4.48535 246.843 4.48535 246.784 4.54395L245.378 5.9502L244.716 5.29395C244.657 5.23535 244.563 5.23535 244.505 5.29395L244.294 5.50488C244.235 5.56348 244.235 5.66309 244.294 5.72168L245.267 6.69434Z" fill="white"/>
<path d="M320.383 19.7891V22.2383H319.473V16.207H320.504C321.009 16.207 321.391 16.2422 321.648 16.3125C321.909 16.3828 322.138 16.5156 322.336 16.7109C322.682 17.0495 322.855 17.4766 322.855 17.9922C322.855 18.5443 322.671 18.9818 322.301 19.3047C321.931 19.6276 321.432 19.7891 320.805 19.7891H320.383ZM320.383 18.9453H320.723C321.559 18.9453 321.977 18.6237 321.977 17.9805C321.977 17.3581 321.546 17.0469 320.684 17.0469H320.383V18.9453ZM326.211 18.4336H327.094V22.2383H326.211V21.8398C325.849 22.1784 325.46 22.3477 325.043 22.3477C324.517 22.3477 324.082 22.1576 323.738 21.7773C323.397 21.3893 323.227 20.9049 323.227 20.3242C323.227 19.7539 323.397 19.2786 323.738 18.8984C324.079 18.5182 324.507 18.3281 325.02 18.3281C325.462 18.3281 325.859 18.5104 326.211 18.875V18.4336ZM324.125 20.3242C324.125 20.6888 324.223 20.9857 324.418 21.2148C324.618 21.4466 324.871 21.5625 325.176 21.5625C325.501 21.5625 325.764 21.4505 325.965 21.2266C326.165 20.9948 326.266 20.7005 326.266 20.3438C326.266 19.987 326.165 19.6927 325.965 19.4609C325.764 19.2344 325.504 19.1211 325.184 19.1211C324.882 19.1211 324.629 19.2357 324.426 19.4648C324.225 19.6966 324.125 19.9831 324.125 20.3242ZM329.473 21.5312L327.762 18.4336H328.781L329.945 20.6211L331.031 18.4336H332.023L328.992 24.3086H327.988L329.473 21.5312ZM332.625 18.4336H333.504V18.7852C333.673 18.6081 333.818 18.4883 333.938 18.4258C334.065 18.3607 334.225 18.3281 334.418 18.3281C334.848 18.3281 335.188 18.5156 335.438 18.8906C335.714 18.5156 336.087 18.3281 336.559 18.3281C337.415 18.3281 337.844 18.8477 337.844 19.8867V22.2383H336.961V20.125C336.961 19.7604 336.917 19.5026 336.828 19.3516C336.737 19.1979 336.587 19.1211 336.379 19.1211C336.137 19.1211 335.96 19.2122 335.848 19.3945C335.738 19.5768 335.684 19.8698 335.684 20.2734V22.2383H334.801V20.1367C334.801 19.4596 334.605 19.1211 334.215 19.1211C333.967 19.1211 333.786 19.2135 333.672 19.3984C333.56 19.5833 333.504 19.875 333.504 20.2734V22.2383H332.625V18.4336ZM342.418 20.543H339.691C339.715 20.8555 339.816 21.1042 339.996 21.2891C340.176 21.4714 340.406 21.5625 340.688 21.5625C340.906 21.5625 341.087 21.5104 341.23 21.4062C341.371 21.3021 341.531 21.1094 341.711 20.8281L342.453 21.2422C342.339 21.4375 342.217 21.6055 342.09 21.7461C341.962 21.8841 341.826 21.9987 341.68 22.0898C341.534 22.1784 341.376 22.2435 341.207 22.2852C341.038 22.3268 340.854 22.3477 340.656 22.3477C340.089 22.3477 339.633 22.1654 339.289 21.8008C338.945 21.4336 338.773 20.9466 338.773 20.3398C338.773 19.7383 338.94 19.2513 339.273 18.8789C339.609 18.5117 340.055 18.3281 340.609 18.3281C341.169 18.3281 341.612 18.5065 341.938 18.8633C342.26 19.2174 342.422 19.7083 342.422 20.3359L342.418 20.543ZM341.516 19.8242C341.393 19.3555 341.098 19.1211 340.629 19.1211C340.522 19.1211 340.422 19.138 340.328 19.1719C340.234 19.2031 340.148 19.25 340.07 19.3125C339.995 19.3724 339.93 19.4453 339.875 19.5312C339.82 19.6172 339.779 19.7148 339.75 19.8242H341.516ZM343.383 18.4336H344.266V18.7852C344.573 18.4805 344.919 18.3281 345.305 18.3281C345.747 18.3281 346.092 18.4674 346.34 18.7461C346.553 18.9831 346.66 19.3698 346.66 19.9062V22.2383H345.777V20.1133C345.777 19.7383 345.725 19.4792 345.621 19.3359C345.52 19.1901 345.335 19.1172 345.066 19.1172C344.775 19.1172 344.568 19.2135 344.445 19.4062C344.326 19.5964 344.266 19.9284 344.266 20.4023V22.2383H343.383V18.4336ZM348.68 19.2539V22.2383H347.801V19.2539H347.426V18.4336H347.801V17.0391H348.68V18.4336H349.363V19.2539H348.68Z" fill="#EFEFEF"/>
<circle cx="334.75" cy="5.5" r="5" stroke="#62C6B7"/>
</svg>
