<svg width="351" height="28" viewBox="0 0 351 28" fill="none" xmlns="http://www.w3.org/2000/svg">
<path d="M44.9741 6.5C45.2503 6.5 45.4741 6.27614 45.4741 6C45.4741 5.72386 45.2503 5.5 44.9741 5.5V6.5ZM49.9224 5.5C49.6463 5.5 49.4224 5.72386 49.4224 6C49.4224 6.27614 49.6463 6.5 49.9224 6.5V5.5ZM54.8707 6.5C55.1468 6.5 55.3707 6.27614 55.3707 6C55.3707 5.72386 55.1468 5.5 54.8707 5.5V6.5ZM59.819 5.5C59.5428 5.5 59.319 5.72386 59.319 6C59.319 6.27614 59.5428 6.5 59.819 6.5V5.5ZM64.7672 6.5C65.0434 6.5 65.2672 6.27614 65.2672 6C65.2672 5.72386 65.0434 5.5 64.7672 5.5V6.5ZM69.7155 5.5C69.4394 5.5 69.2155 5.72386 69.2155 6C69.2155 6.27614 69.4394 6.5 69.7155 6.5V5.5ZM74.6638 6.5C74.9399 6.5 75.1638 6.27614 75.1638 6C75.1638 5.72386 74.9399 5.5 74.6638 5.5V6.5ZM79.6121 5.5C79.3359 5.5 79.1121 5.72386 79.1121 6C79.1121 6.27614 79.3359 6.5 79.6121 6.5V5.5ZM84.5604 6.5C84.8365 6.5 85.0604 6.27614 85.0604 6C85.0604 5.72386 84.8365 5.5 84.5604 5.5V6.5ZM89.5086 5.5C89.2325 5.5 89.0086 5.72386 89.0086 6C89.0086 6.27614 89.2325 6.5 89.5086 6.5V5.5ZM94.4569 6.5C94.733 6.5 94.9569 6.27614 94.9569 6C94.9569 5.72386 94.733 5.5 94.4569 5.5V6.5ZM99.4052 5.5C99.129 5.5 98.9052 5.72386 98.9052 6C98.9052 6.27614 99.129 6.5 99.4052 6.5V5.5ZM104.353 6.5C104.63 6.5 104.853 6.27614 104.853 6C104.853 5.72386 104.63 5.5 104.353 5.5V6.5ZM109.302 5.5C109.026 5.5 108.802 5.72386 108.802 6C108.802 6.27614 109.026 6.5 109.302 6.5V5.5ZM114.25 6.5C114.526 6.5 114.75 6.27614 114.75 6C114.75 5.72386 114.526 5.5 114.25 5.5V6.5ZM119.198 5.5C118.922 5.5 118.698 5.72386 118.698 6C118.698 6.27614 118.922 6.5 119.198 6.5V5.5ZM124.147 6.5C124.423 6.5 124.647 6.27614 124.647 6C124.647 5.72386 124.423 5.5 124.147 5.5V6.5ZM129.095 5.5C128.819 5.5 128.595 5.72386 128.595 6C128.595 6.27614 128.819 6.5 129.095 6.5V5.5ZM134.043 6.5C134.319 6.5 134.543 6.27614 134.543 6C134.543 5.72386 134.319 5.5 134.043 5.5V6.5ZM138.991 5.5C138.715 5.5 138.491 5.72386 138.491 6C138.491 6.27614 138.715 6.5 138.991 6.5V5.5ZM143.94 6.5C144.216 6.5 144.44 6.27614 144.44 6C144.44 5.72386 144.216 5.5 143.94 5.5V6.5ZM148.888 5.5C148.612 5.5 148.388 5.72386 148.388 6C148.388 6.27614 148.612 6.5 148.888 6.5V5.5ZM153.836 6.5C154.112 6.5 154.336 6.27614 154.336 6C154.336 5.72386 154.112 5.5 153.836 5.5V6.5ZM158.784 5.5C158.508 5.5 158.284 5.72386 158.284 6C158.284 6.27614 158.508 6.5 158.784 6.5V5.5ZM163.733 6.5C164.009 6.5 164.233 6.27614 164.233 6C164.233 5.72386 164.009 5.5 163.733 5.5V6.5ZM168.681 5.5C168.405 5.5 168.181 5.72386 168.181 6C168.181 6.27614 168.405 6.5 168.681 6.5V5.5ZM173.629 6.5C173.905 6.5 174.129 6.27614 174.129 6C174.129 5.72386 173.905 5.5 173.629 5.5V6.5ZM178.578 5.5C178.301 5.5 178.078 5.72386 178.078 6C178.078 6.27614 178.301 6.5 178.578 6.5V5.5ZM183.526 6.5C183.802 6.5 184.026 6.27614 184.026 6C184.026 5.72386 183.802 5.5 183.526 5.5V6.5ZM188.474 5.5C188.198 5.5 187.974 5.72386 187.974 6C187.974 6.27614 188.198 6.5 188.474 6.5V5.5ZM193.422 6.5C193.699 6.5 193.922 6.27614 193.922 6C193.922 5.72386 193.699 5.5 193.422 5.5V6.5ZM198.371 5.5C198.094 5.5 197.871 5.72386 197.871 6C197.871 6.27614 198.094 6.5 198.371 6.5V5.5ZM203.319 6.5C203.595 6.5 203.819 6.27614 203.819 6C203.819 5.72386 203.595 5.5 203.319 5.5V6.5ZM208.267 5.5C207.991 5.5 207.767 5.72386 207.767 6C207.767 6.27614 207.991 6.5 208.267 6.5V5.5ZM213.215 6.5C213.492 6.5 213.715 6.27614 213.715 6C213.715 5.72386 213.492 5.5 213.215 5.5V6.5ZM218.164 5.5C217.888 5.5 217.664 5.72386 217.664 6C217.664 6.27614 217.888 6.5 218.164 6.5V5.5ZM223.112 6.5C223.388 6.5 223.612 6.27614 223.612 6C223.612 5.72386 223.388 5.5 223.112 5.5V6.5ZM228.06 5.5C227.784 5.5 227.56 5.72386 227.56 6C227.56 6.27614 227.784 6.5 228.06 6.5V5.5ZM233.009 6.5C233.285 6.5 233.509 6.27614 233.509 6C233.509 5.72386 233.285 5.5 233.009 5.5V6.5ZM237.957 5.5C237.681 5.5 237.457 5.72386 237.457 6C237.457 6.27614 237.681 6.5 237.957 6.5V5.5ZM242.905 6.5C243.181 6.5 243.405 6.27614 243.405 6C243.405 5.72386 243.181 5.5 242.905 5.5V6.5ZM247.853 5.5C247.577 5.5 247.353 5.72386 247.353 6C247.353 6.27614 247.577 6.5 247.853 6.5V5.5ZM252.802 6.5C253.078 6.5 253.302 6.27614 253.302 6C253.302 5.72386 253.078 5.5 252.802 5.5V6.5ZM257.75 5.5C257.474 5.5 257.25 5.72386 257.25 6C257.25 6.27614 257.474 6.5 257.75 6.5V5.5ZM262.698 6.5C262.974 6.5 263.198 6.27614 263.198 6C263.198 5.72386 262.974 5.5 262.698 5.5V6.5ZM267.646 5.5C267.37 5.5 267.146 5.72386 267.146 6C267.146 6.27614 267.37 6.5 267.646 6.5V5.5ZM272.595 6.5C272.871 6.5 273.095 6.27614 273.095 6C273.095 5.72386 272.871 5.5 272.595 5.5V6.5ZM277.543 5.5C277.267 5.5 277.043 5.72386 277.043 6C277.043 6.27614 277.267 6.5 277.543 6.5V5.5ZM282.491 6.5C282.767 6.5 282.991 6.27614 282.991 6C282.991 5.72386 282.767 5.5 282.491 5.5V6.5ZM287.44 5.5C287.163 5.5 286.94 5.72386 286.94 6C286.94 6.27614 287.163 6.5 287.44 6.5V5.5ZM292.388 6.5C292.664 6.5 292.888 6.27614 292.888 6C292.888 5.72386 292.664 5.5 292.388 5.5V6.5ZM297.336 5.5C297.06 5.5 296.836 5.72386 296.836 6C296.836 6.27614 297.06 6.5 297.336 6.5V5.5ZM302.284 6.5C302.561 6.5 302.784 6.27614 302.784 6C302.784 5.72386 302.561 5.5 302.284 5.5V6.5ZM307.233 5.5C306.957 5.5 306.733 5.72386 306.733 6C306.733 6.27614 306.957 6.5 307.233 6.5V5.5ZM312.181 6.5C312.457 6.5 312.681 6.27614 312.681 6C312.681 5.72386 312.457 5.5 312.181 5.5V6.5ZM317.129 5.5C316.853 5.5 316.629 5.72386 316.629 6C316.629 6.27614 316.853 6.5 317.129 6.5V5.5ZM322.077 6.5C322.354 6.5 322.577 6.27614 322.577 6C322.577 5.72386 322.354 5.5 322.077 5.5V6.5ZM327.026 5.5C326.75 5.5 326.526 5.72386 326.526 6C326.526 6.27614 326.75 6.5 327.026 6.5V5.5ZM42.5 6.5H44.9741V5.5H42.5V6.5ZM49.9224 6.5H54.8707V5.5H49.9224V6.5ZM59.819 6.5H64.7672V5.5H59.819V6.5ZM69.7155 6.5H74.6638V5.5H69.7155V6.5ZM79.6121 6.5H84.5604V5.5H79.6121V6.5ZM89.5086 6.5H94.4569V5.5H89.5086V6.5ZM99.4052 6.5H104.353V5.5H99.4052V6.5ZM109.302 6.5H114.25V5.5H109.302V6.5ZM119.198 6.5H124.147V5.5H119.198V6.5ZM129.095 6.5H134.043V5.5H129.095V6.5ZM138.991 6.5H143.94V5.5H138.991V6.5ZM148.888 6.5H153.836V5.5H148.888V6.5ZM158.784 6.5H163.733V5.5H158.784V6.5ZM168.681 6.5H173.629V5.5H168.681V6.5ZM178.578 6.5H183.526V5.5H178.578V6.5ZM188.474 6.5H193.422V5.5H188.474V6.5ZM198.371 6.5H203.319V5.5H198.371V6.5ZM208.267 6.5H213.215V5.5H208.267V6.5ZM218.164 6.5H223.112V5.5H218.164V6.5ZM228.06 6.5H233.009V5.5H228.06V6.5ZM237.957 6.5H242.905V5.5H237.957V6.5ZM247.853 6.5H252.802V5.5H247.853V6.5ZM257.75 6.5H262.698V5.5H257.75V6.5ZM267.646 6.5H272.595V5.5H267.646V6.5ZM277.543 6.5H282.491V5.5H277.543V6.5ZM287.44 6.5H292.388V5.5H287.44V6.5ZM297.336 6.5H302.284V5.5H297.336V6.5ZM307.233 6.5H312.181V5.5H307.233V6.5ZM317.129 6.5H322.077V5.5H317.129V6.5ZM327.026 6.5H329.5V5.5H327.026V6.5Z" fill="#62C6B7"/>
<path d="M1.47266 22.2383V16.207H2.73828C3.34505 16.207 3.82422 16.2669 4.17578 16.3867C4.55339 16.5039 4.89583 16.7031 5.20312 16.9844C5.82552 17.5521 6.13672 18.2982 6.13672 19.2227C6.13672 20.1497 5.8125 20.8997 5.16406 21.4727C4.83854 21.7591 4.4974 21.9583 4.14062 22.0703C3.80729 22.1823 3.33464 22.2383 2.72266 22.2383H1.47266ZM2.38281 21.3828H2.79297C3.20182 21.3828 3.54167 21.3398 3.8125 21.2539C4.08333 21.1628 4.32812 21.0182 4.54688 20.8203C4.99479 20.4115 5.21875 19.8789 5.21875 19.2227C5.21875 18.5612 4.9974 18.0247 4.55469 17.6133C4.15625 17.2461 3.56901 17.0625 2.79297 17.0625H2.38281V21.3828ZM10.582 20.543H7.85547C7.87891 20.8555 7.98047 21.1042 8.16016 21.2891C8.33984 21.4714 8.57031 21.5625 8.85156 21.5625C9.07031 21.5625 9.2513 21.5104 9.39453 21.4062C9.53516 21.3021 9.69531 21.1094 9.875 20.8281L10.6172 21.2422C10.5026 21.4375 10.3815 21.6055 10.2539 21.7461C10.1263 21.8841 9.98958 21.9987 9.84375 22.0898C9.69792 22.1784 9.54036 22.2435 9.37109 22.2852C9.20182 22.3268 9.01823 22.3477 8.82031 22.3477C8.2526 22.3477 7.79688 22.1654 7.45312 21.8008C7.10938 21.4336 6.9375 20.9466 6.9375 20.3398C6.9375 19.7383 7.10417 19.2513 7.4375 18.8789C7.77344 18.5117 8.21875 18.3281 8.77344 18.3281C9.33333 18.3281 9.77604 18.5065 10.1016 18.8633C10.4245 19.2174 10.5859 19.7083 10.5859 20.3359L10.582 20.543ZM9.67969 19.8242C9.55729 19.3555 9.26172 19.1211 8.79297 19.1211C8.6862 19.1211 8.58594 19.138 8.49219 19.1719C8.39844 19.2031 8.3125 19.25 8.23438 19.3125C8.15885 19.3724 8.09375 19.4453 8.03906 19.5312C7.98438 19.6172 7.94271 19.7148 7.91406 19.8242H9.67969ZM12.4258 15.6406V22.2383H11.5469V15.6406H12.4258ZM14.418 18.4336V22.2383H13.5391V18.4336H14.418ZM13.4062 16.8516C13.4062 16.6979 13.4622 16.5651 13.5742 16.4531C13.6862 16.3411 13.8203 16.2852 13.9766 16.2852C14.1354 16.2852 14.2708 16.3411 14.3828 16.4531C14.4948 16.5625 14.5508 16.6966 14.5508 16.8555C14.5508 17.0143 14.4948 17.1497 14.3828 17.2617C14.2734 17.3737 14.1393 17.4297 13.9805 17.4297C13.8216 17.4297 13.6862 17.3737 13.5742 17.2617C13.4622 17.1497 13.4062 17.013 13.4062 16.8516ZM16.0039 18.4336L16.9883 20.5703L17.9688 18.4336H18.957L16.9805 22.5L15.0195 18.4336H16.0039ZM22.8789 20.543H20.1523C20.1758 20.8555 20.2773 21.1042 20.457 21.2891C20.6367 21.4714 20.8672 21.5625 21.1484 21.5625C21.3672 21.5625 21.5482 21.5104 21.6914 21.4062C21.832 21.3021 21.9922 21.1094 22.1719 20.8281L22.9141 21.2422C22.7995 21.4375 22.6784 21.6055 22.5508 21.7461C22.4232 21.8841 22.2865 21.9987 22.1406 22.0898C21.9948 22.1784 21.8372 22.2435 21.668 22.2852C21.4987 22.3268 21.3151 22.3477 21.1172 22.3477C20.5495 22.3477 20.0938 22.1654 19.75 21.8008C19.4062 21.4336 19.2344 20.9466 19.2344 20.3398C19.2344 19.7383 19.401 19.2513 19.7344 18.8789C20.0703 18.5117 20.5156 18.3281 21.0703 18.3281C21.6302 18.3281 22.0729 18.5065 22.3984 18.8633C22.7214 19.2174 22.8828 19.7083 22.8828 20.3359L22.8789 20.543ZM21.9766 19.8242C21.8542 19.3555 21.5586 19.1211 21.0898 19.1211C20.9831 19.1211 20.8828 19.138 20.7891 19.1719C20.6953 19.2031 20.6094 19.25 20.5312 19.3125C20.4557 19.3724 20.3906 19.4453 20.3359 19.5312C20.2812 19.6172 20.2396 19.7148 20.2109 19.8242H21.9766ZM23.8438 18.4336H24.7227V18.7734C24.8841 18.6042 25.0273 18.4883 25.1523 18.4258C25.2799 18.3607 25.431 18.3281 25.6055 18.3281C25.8372 18.3281 26.0794 18.4036 26.332 18.5547L25.9297 19.3594C25.763 19.2396 25.6003 19.1797 25.4414 19.1797C24.9622 19.1797 24.7227 19.5417 24.7227 20.2656V22.2383H23.8438V18.4336ZM28.3867 21.5312L26.6758 18.4336H27.6953L28.8594 20.6211L29.9453 18.4336H30.9375L27.9062 24.3086H26.9023L28.3867 21.5312ZM38.6328 16.5312V17.6094C38.1068 17.1693 37.5625 16.9492 37 16.9492C36.3802 16.9492 35.8581 17.1719 35.4336 17.6172C35.0065 18.0599 34.793 18.6016 34.793 19.2422C34.793 19.875 35.0065 20.4089 35.4336 20.8438C35.8607 21.2786 36.3841 21.4961 37.0039 21.4961C37.3242 21.4961 37.5964 21.444 37.8203 21.3398C37.9453 21.2878 38.0742 21.2174 38.207 21.1289C38.3424 21.0404 38.4844 20.9336 38.6328 20.8086V21.9062C38.112 22.2005 37.5651 22.3477 36.9922 22.3477C36.1302 22.3477 35.3945 22.0469 34.7852 21.4453C34.1784 20.8385 33.875 20.1068 33.875 19.25C33.875 18.4818 34.1289 17.7969 34.6367 17.1953C35.2617 16.4583 36.0703 16.0898 37.0625 16.0898C37.6042 16.0898 38.1276 16.237 38.6328 16.5312ZM42.4219 18.4336H43.3047V22.2383H42.4219V21.8398C42.0599 22.1784 41.6706 22.3477 41.2539 22.3477C40.7279 22.3477 40.293 22.1576 39.9492 21.7773C39.6081 21.3893 39.4375 20.9049 39.4375 20.3242C39.4375 19.7539 39.6081 19.2786 39.9492 18.8984C40.2904 18.5182 40.7174 18.3281 41.2305 18.3281C41.6732 18.3281 42.0703 18.5104 42.4219 18.875V18.4336ZM40.3359 20.3242C40.3359 20.6888 40.4336 20.9857 40.6289 21.2148C40.8294 21.4466 41.082 21.5625 41.3867 21.5625C41.7122 21.5625 41.9753 21.4505 42.1758 21.2266C42.3763 20.9948 42.4766 20.7005 42.4766 20.3438C42.4766 19.987 42.3763 19.6927 42.1758 19.4609C41.9753 19.2344 41.7148 19.1211 41.3945 19.1211C41.0924 19.1211 40.8398 19.2357 40.6367 19.4648C40.4362 19.6966 40.3359 19.9831 40.3359 20.3242ZM45.293 15.6406V22.2383H44.4141V15.6406H45.293ZM49.3672 18.5977V19.7656C49.1667 19.5208 48.987 19.3529 48.8281 19.2617C48.6719 19.168 48.4883 19.1211 48.2773 19.1211C47.9466 19.1211 47.6719 19.237 47.4531 19.4688C47.2344 19.7005 47.125 19.9909 47.125 20.3398C47.125 20.6966 47.2305 20.9896 47.4414 21.2188C47.6549 21.4479 47.9271 21.5625 48.2578 21.5625C48.4688 21.5625 48.6549 21.5169 48.8164 21.4258C48.9727 21.3372 49.1562 21.1654 49.3672 20.9102V22.0703C49.0104 22.2552 48.6536 22.3477 48.2969 22.3477C47.7083 22.3477 47.2161 22.1576 46.8203 21.7773C46.4245 21.3945 46.2266 20.9193 46.2266 20.3516C46.2266 19.7839 46.4271 19.3047 46.8281 18.9141C47.2292 18.5234 47.7214 18.3281 48.3047 18.3281C48.6797 18.3281 49.0339 18.418 49.3672 18.5977ZM51.0977 18.4336V20.6172C51.0977 21.2474 51.3464 21.5625 51.8438 21.5625C52.3411 21.5625 52.5898 21.2474 52.5898 20.6172V18.4336H53.4688V20.6367C53.4688 20.9414 53.431 21.2044 53.3555 21.4258C53.2826 21.6237 53.1562 21.8021 52.9766 21.9609C52.6797 22.2188 52.3021 22.3477 51.8438 22.3477C51.388 22.3477 51.0117 22.2188 50.7148 21.9609C50.5326 21.8021 50.4036 21.6237 50.3281 21.4258C50.2552 21.2487 50.2188 20.9857 50.2188 20.6367V18.4336H51.0977ZM55.457 15.6406V22.2383H54.5781V15.6406H55.457ZM59.375 18.4336H60.2578V22.2383H59.375V21.8398C59.013 22.1784 58.6237 22.3477 58.207 22.3477C57.681 22.3477 57.2461 22.1576 56.9023 21.7773C56.5612 21.3893 56.3906 20.9049 56.3906 20.3242C56.3906 19.7539 56.5612 19.2786 56.9023 18.8984C57.2435 18.5182 57.6706 18.3281 58.1836 18.3281C58.6263 18.3281 59.0234 18.5104 59.375 18.875V18.4336ZM57.2891 20.3242C57.2891 20.6888 57.3867 20.9857 57.582 21.2148C57.7826 21.4466 58.0352 21.5625 58.3398 21.5625C58.6654 21.5625 58.9284 21.4505 59.1289 21.2266C59.3294 20.9948 59.4297 20.7005 59.4297 20.3438C59.4297 19.987 59.3294 19.6927 59.1289 19.4609C58.9284 19.2344 58.668 19.1211 58.3477 19.1211C58.0456 19.1211 57.793 19.2357 57.5898 19.4648C57.3893 19.6966 57.2891 19.9831 57.2891 20.3242ZM62.2734 19.2539V22.2383H61.3945V19.2539H61.0195V18.4336H61.3945V17.0391H62.2734V18.4336H62.957V19.2539H62.2734ZM63.4297 20.3086C63.4297 19.7591 63.6263 19.2917 64.0195 18.9062C64.4128 18.5208 64.8919 18.3281 65.457 18.3281C66.0247 18.3281 66.5065 18.5221 66.9023 18.9102C67.293 19.2982 67.4883 19.7747 67.4883 20.3398C67.4883 20.9102 67.2917 21.388 66.8984 21.7734C66.5026 22.1562 66.0169 22.3477 65.4414 22.3477C64.8711 22.3477 64.3932 22.1523 64.0078 21.7617C63.6224 21.3763 63.4297 20.8919 63.4297 20.3086ZM64.3281 20.3242C64.3281 20.7044 64.4297 21.0052 64.6328 21.2266C64.8411 21.4505 65.1159 21.5625 65.457 21.5625C65.8008 21.5625 66.0755 21.4518 66.2812 21.2305C66.487 21.0091 66.5898 20.7135 66.5898 20.3438C66.5898 19.974 66.487 19.6784 66.2812 19.457C66.0729 19.2331 65.7982 19.1211 65.457 19.1211C65.1211 19.1211 64.849 19.2331 64.6406 19.457C64.4323 19.681 64.3281 19.9701 64.3281 20.3242ZM68.4219 18.4336H69.3008V18.7734C69.4622 18.6042 69.6055 18.4883 69.7305 18.4258C69.8581 18.3607 70.0091 18.3281 70.1836 18.3281C70.4154 18.3281 70.6576 18.4036 70.9102 18.5547L70.5078 19.3594C70.3411 19.2396 70.1784 19.1797 70.0195 19.1797C69.5404 19.1797 69.3008 19.5417 69.3008 20.2656V22.2383H68.4219V18.4336Z" fill="#EFEFEF"/>
<rect x="31.25" width="11" height="11.2383" rx="5.5" fill="#62C6B7"/>
<path d="M36.2666 6.69434C36.3252 6.75293 36.4248 6.75293 36.4834 6.69434L38.2061 4.97168C38.2646 4.91309 38.2646 4.81348 38.2061 4.75488L37.9951 4.54395C37.9365 4.48535 37.8428 4.48535 37.7842 4.54395L36.3779 5.9502L35.7158 5.29395C35.6572 5.23535 35.5635 5.23535 35.5049 5.29395L35.2939 5.50488C35.2354 5.56348 35.2354 5.66309 35.2939 5.72168L36.2666 6.69434Z" fill="white"/>
<path d="M122.973 22.2383V16.207H124.238C124.845 16.207 125.324 16.2669 125.676 16.3867C126.053 16.5039 126.396 16.7031 126.703 16.9844C127.326 17.5521 127.637 18.2982 127.637 19.2227C127.637 20.1497 127.312 20.8997 126.664 21.4727C126.339 21.7591 125.997 21.9583 125.641 22.0703C125.307 22.1823 124.835 22.2383 124.223 22.2383H122.973ZM123.883 21.3828H124.293C124.702 21.3828 125.042 21.3398 125.312 21.2539C125.583 21.1628 125.828 21.0182 126.047 20.8203C126.495 20.4115 126.719 19.8789 126.719 19.2227C126.719 18.5612 126.497 18.0247 126.055 17.6133C125.656 17.2461 125.069 17.0625 124.293 17.0625H123.883V21.3828ZM132.082 20.543H129.355C129.379 20.8555 129.48 21.1042 129.66 21.2891C129.84 21.4714 130.07 21.5625 130.352 21.5625C130.57 21.5625 130.751 21.5104 130.895 21.4062C131.035 21.3021 131.195 21.1094 131.375 20.8281L132.117 21.2422C132.003 21.4375 131.882 21.6055 131.754 21.7461C131.626 21.8841 131.49 21.9987 131.344 22.0898C131.198 22.1784 131.04 22.2435 130.871 22.2852C130.702 22.3268 130.518 22.3477 130.32 22.3477C129.753 22.3477 129.297 22.1654 128.953 21.8008C128.609 21.4336 128.438 20.9466 128.438 20.3398C128.438 19.7383 128.604 19.2513 128.938 18.8789C129.273 18.5117 129.719 18.3281 130.273 18.3281C130.833 18.3281 131.276 18.5065 131.602 18.8633C131.924 19.2174 132.086 19.7083 132.086 20.3359L132.082 20.543ZM131.18 19.8242C131.057 19.3555 130.762 19.1211 130.293 19.1211C130.186 19.1211 130.086 19.138 129.992 19.1719C129.898 19.2031 129.812 19.25 129.734 19.3125C129.659 19.3724 129.594 19.4453 129.539 19.5312C129.484 19.6172 129.443 19.7148 129.414 19.8242H131.18ZM133.926 15.6406V22.2383H133.047V15.6406H133.926ZM135.918 18.4336V22.2383H135.039V18.4336H135.918ZM134.906 16.8516C134.906 16.6979 134.962 16.5651 135.074 16.4531C135.186 16.3411 135.32 16.2852 135.477 16.2852C135.635 16.2852 135.771 16.3411 135.883 16.4531C135.995 16.5625 136.051 16.6966 136.051 16.8555C136.051 17.0143 135.995 17.1497 135.883 17.2617C135.773 17.3737 135.639 17.4297 135.48 17.4297C135.322 17.4297 135.186 17.3737 135.074 17.2617C134.962 17.1497 134.906 17.013 134.906 16.8516ZM137.504 18.4336L138.488 20.5703L139.469 18.4336H140.457L138.48 22.5L136.52 18.4336H137.504ZM144.379 20.543H141.652C141.676 20.8555 141.777 21.1042 141.957 21.2891C142.137 21.4714 142.367 21.5625 142.648 21.5625C142.867 21.5625 143.048 21.5104 143.191 21.4062C143.332 21.3021 143.492 21.1094 143.672 20.8281L144.414 21.2422C144.299 21.4375 144.178 21.6055 144.051 21.7461C143.923 21.8841 143.786 21.9987 143.641 22.0898C143.495 22.1784 143.337 22.2435 143.168 22.2852C142.999 22.3268 142.815 22.3477 142.617 22.3477C142.049 22.3477 141.594 22.1654 141.25 21.8008C140.906 21.4336 140.734 20.9466 140.734 20.3398C140.734 19.7383 140.901 19.2513 141.234 18.8789C141.57 18.5117 142.016 18.3281 142.57 18.3281C143.13 18.3281 143.573 18.5065 143.898 18.8633C144.221 19.2174 144.383 19.7083 144.383 20.3359L144.379 20.543ZM143.477 19.8242C143.354 19.3555 143.059 19.1211 142.59 19.1211C142.483 19.1211 142.383 19.138 142.289 19.1719C142.195 19.2031 142.109 19.25 142.031 19.3125C141.956 19.3724 141.891 19.4453 141.836 19.5312C141.781 19.6172 141.74 19.7148 141.711 19.8242H143.477ZM145.344 18.4336H146.223V18.7734C146.384 18.6042 146.527 18.4883 146.652 18.4258C146.78 18.3607 146.931 18.3281 147.105 18.3281C147.337 18.3281 147.579 18.4036 147.832 18.5547L147.43 19.3594C147.263 19.2396 147.1 19.1797 146.941 19.1797C146.462 19.1797 146.223 19.5417 146.223 20.2656V22.2383H145.344V18.4336ZM149.887 21.5312L148.176 18.4336H149.195L150.359 20.6211L151.445 18.4336H152.438L149.406 24.3086H148.402L149.887 21.5312ZM157.34 17.0625V22.2383H156.43V17.0625H155.043V16.207H158.723V17.0625H157.34ZM160.207 21.5312L158.496 18.4336H159.516L160.68 20.6211L161.766 18.4336H162.758L159.727 24.3086H158.723L160.207 21.5312ZM164.238 24.3086H163.359V18.4336H164.238V18.8477C164.585 18.5013 164.978 18.3281 165.418 18.3281C165.941 18.3281 166.372 18.5208 166.711 18.9062C167.055 19.2891 167.227 19.7721 167.227 20.3555C167.227 20.9258 167.056 21.401 166.715 21.7812C166.376 22.1589 165.949 22.3477 165.434 22.3477C164.988 22.3477 164.59 22.1693 164.238 21.8125V24.3086ZM166.328 20.3594C166.328 19.9948 166.229 19.6979 166.031 19.4688C165.831 19.237 165.578 19.1211 165.273 19.1211C164.951 19.1211 164.689 19.2331 164.488 19.457C164.288 19.681 164.188 19.9753 164.188 20.3398C164.188 20.6966 164.288 20.9909 164.488 21.2227C164.686 21.4492 164.947 21.5625 165.27 21.5625C165.574 21.5625 165.826 21.4479 166.023 21.2188C166.227 20.9896 166.328 20.7031 166.328 20.3594ZM171.621 20.543H168.895C168.918 20.8555 169.02 21.1042 169.199 21.2891C169.379 21.4714 169.609 21.5625 169.891 21.5625C170.109 21.5625 170.29 21.5104 170.434 21.4062C170.574 21.3021 170.734 21.1094 170.914 20.8281L171.656 21.2422C171.542 21.4375 171.421 21.6055 171.293 21.7461C171.165 21.8841 171.029 21.9987 170.883 22.0898C170.737 22.1784 170.579 22.2435 170.41 22.2852C170.241 22.3268 170.057 22.3477 169.859 22.3477C169.292 22.3477 168.836 22.1654 168.492 21.8008C168.148 21.4336 167.977 20.9466 167.977 20.3398C167.977 19.7383 168.143 19.2513 168.477 18.8789C168.812 18.5117 169.258 18.3281 169.812 18.3281C170.372 18.3281 170.815 18.5065 171.141 18.8633C171.464 19.2174 171.625 19.7083 171.625 20.3359L171.621 20.543ZM170.719 19.8242C170.596 19.3555 170.301 19.1211 169.832 19.1211C169.725 19.1211 169.625 19.138 169.531 19.1719C169.438 19.2031 169.352 19.25 169.273 19.3125C169.198 19.3724 169.133 19.4453 169.078 19.5312C169.023 19.6172 168.982 19.7148 168.953 19.8242H170.719Z" fill="#EFEFEF"/>
<rect x="141.75" width="11" height="11.2383" rx="5.5" fill="#62C6B7"/>
<path d="M146.767 6.69434C146.825 6.75293 146.925 6.75293 146.983 6.69434L148.706 4.97168C148.765 4.91309 148.765 4.81348 148.706 4.75488L148.495 4.54395C148.437 4.48535 148.343 4.48535 148.284 4.54395L146.878 5.9502L146.216 5.29395C146.157 5.23535 146.063 5.23535 146.005 5.29395L145.794 5.50488C145.735 5.56348 145.735 5.66309 145.794 5.72168L146.767 6.69434Z" fill="white"/>
<path d="M222.672 19.1953C222.672 18.3464 222.983 17.6172 223.605 17.0078C224.225 16.3984 224.97 16.0938 225.84 16.0938C226.699 16.0938 227.436 16.401 228.051 17.0156C228.668 17.6302 228.977 18.3685 228.977 19.2305C228.977 20.0977 228.667 20.8333 228.047 21.4375C227.424 22.0443 226.673 22.3477 225.793 22.3477C225.014 22.3477 224.315 22.0781 223.695 21.5391C223.013 20.9427 222.672 20.1615 222.672 19.1953ZM223.59 19.207C223.59 19.8737 223.814 20.4219 224.262 20.8516C224.707 21.2812 225.221 21.4961 225.805 21.4961C226.438 21.4961 226.971 21.2773 227.406 20.8398C227.841 20.3971 228.059 19.8581 228.059 19.2227C228.059 18.5794 227.844 18.0404 227.414 17.6055C226.987 17.168 226.458 16.9492 225.828 16.9492C225.201 16.9492 224.671 17.168 224.238 17.6055C223.806 18.0378 223.59 18.5716 223.59 19.207ZM229.953 18.4336H230.832V18.7734C230.993 18.6042 231.137 18.4883 231.262 18.4258C231.389 18.3607 231.54 18.3281 231.715 18.3281C231.947 18.3281 232.189 18.4036 232.441 18.5547L232.039 19.3594C231.872 19.2396 231.71 19.1797 231.551 19.1797C231.072 19.1797 230.832 19.5417 230.832 20.2656V22.2383H229.953V18.4336ZM235.695 15.6406H236.578V22.2383H235.695V21.8398C235.349 22.1784 234.957 22.3477 234.52 22.3477C233.999 22.3477 233.566 22.1576 233.223 21.7773C232.882 21.3893 232.711 20.9049 232.711 20.3242C232.711 19.7565 232.882 19.2826 233.223 18.9023C233.561 18.5195 233.987 18.3281 234.5 18.3281C234.945 18.3281 235.344 18.5104 235.695 18.875V15.6406ZM233.609 20.3242C233.609 20.6888 233.707 20.9857 233.902 21.2148C234.103 21.4466 234.355 21.5625 234.66 21.5625C234.986 21.5625 235.249 21.4505 235.449 21.2266C235.65 20.9948 235.75 20.7005 235.75 20.3438C235.75 19.987 235.65 19.6927 235.449 19.4609C235.249 19.2344 234.988 19.1211 234.668 19.1211C234.366 19.1211 234.113 19.2357 233.91 19.4648C233.71 19.6966 233.609 19.9831 233.609 20.3242ZM241.152 20.543H238.426C238.449 20.8555 238.551 21.1042 238.73 21.2891C238.91 21.4714 239.141 21.5625 239.422 21.5625C239.641 21.5625 239.822 21.5104 239.965 21.4062C240.105 21.3021 240.266 21.1094 240.445 20.8281L241.188 21.2422C241.073 21.4375 240.952 21.6055 240.824 21.7461C240.697 21.8841 240.56 21.9987 240.414 22.0898C240.268 22.1784 240.111 22.2435 239.941 22.2852C239.772 22.3268 239.589 22.3477 239.391 22.3477C238.823 22.3477 238.367 22.1654 238.023 21.8008C237.68 21.4336 237.508 20.9466 237.508 20.3398C237.508 19.7383 237.674 19.2513 238.008 18.8789C238.344 18.5117 238.789 18.3281 239.344 18.3281C239.904 18.3281 240.346 18.5065 240.672 18.8633C240.995 19.2174 241.156 19.7083 241.156 20.3359L241.152 20.543ZM240.25 19.8242C240.128 19.3555 239.832 19.1211 239.363 19.1211C239.257 19.1211 239.156 19.138 239.062 19.1719C238.969 19.2031 238.883 19.25 238.805 19.3125C238.729 19.3724 238.664 19.4453 238.609 19.5312C238.555 19.6172 238.513 19.7148 238.484 19.8242H240.25ZM242.117 18.4336H242.996V18.7734C243.158 18.6042 243.301 18.4883 243.426 18.4258C243.553 18.3607 243.704 18.3281 243.879 18.3281C244.111 18.3281 244.353 18.4036 244.605 18.5547L244.203 19.3594C244.036 19.2396 243.874 19.1797 243.715 19.1797C243.236 19.1797 242.996 19.5417 242.996 20.2656V22.2383H242.117V18.4336ZM247.746 22.2383V16.207H249.012C249.618 16.207 250.098 16.2669 250.449 16.3867C250.827 16.5039 251.169 16.7031 251.477 16.9844C252.099 17.5521 252.41 18.2982 252.41 19.2227C252.41 20.1497 252.086 20.8997 251.438 21.4727C251.112 21.7591 250.771 21.9583 250.414 22.0703C250.081 22.1823 249.608 22.2383 248.996 22.2383H247.746ZM248.656 21.3828H249.066C249.475 21.3828 249.815 21.3398 250.086 21.2539C250.357 21.1628 250.602 21.0182 250.82 20.8203C251.268 20.4115 251.492 19.8789 251.492 19.2227C251.492 18.5612 251.271 18.0247 250.828 17.6133C250.43 17.2461 249.842 17.0625 249.066 17.0625H248.656V21.3828ZM256.855 20.543H254.129C254.152 20.8555 254.254 21.1042 254.434 21.2891C254.613 21.4714 254.844 21.5625 255.125 21.5625C255.344 21.5625 255.525 21.5104 255.668 21.4062C255.809 21.3021 255.969 21.1094 256.148 20.8281L256.891 21.2422C256.776 21.4375 256.655 21.6055 256.527 21.7461C256.4 21.8841 256.263 21.9987 256.117 22.0898C255.971 22.1784 255.814 22.2435 255.645 22.2852C255.475 22.3268 255.292 22.3477 255.094 22.3477C254.526 22.3477 254.07 22.1654 253.727 21.8008C253.383 21.4336 253.211 20.9466 253.211 20.3398C253.211 19.7383 253.378 19.2513 253.711 18.8789C254.047 18.5117 254.492 18.3281 255.047 18.3281C255.607 18.3281 256.049 18.5065 256.375 18.8633C256.698 19.2174 256.859 19.7083 256.859 20.3359L256.855 20.543ZM255.953 19.8242C255.831 19.3555 255.535 19.1211 255.066 19.1211C254.96 19.1211 254.859 19.138 254.766 19.1719C254.672 19.2031 254.586 19.25 254.508 19.3125C254.432 19.3724 254.367 19.4453 254.312 19.5312C254.258 19.6172 254.216 19.7148 254.188 19.8242H255.953ZM258.797 19.2539V22.2383H257.918V19.2539H257.543V18.4336H257.918V17.0391H258.797V18.4336H259.48V19.2539H258.797ZM262.953 18.4336H263.836V22.2383H262.953V21.8398C262.591 22.1784 262.202 22.3477 261.785 22.3477C261.259 22.3477 260.824 22.1576 260.48 21.7773C260.139 21.3893 259.969 20.9049 259.969 20.3242C259.969 19.7539 260.139 19.2786 260.48 18.8984C260.822 18.5182 261.249 18.3281 261.762 18.3281C262.204 18.3281 262.602 18.5104 262.953 18.875V18.4336ZM260.867 20.3242C260.867 20.6888 260.965 20.9857 261.16 21.2148C261.361 21.4466 261.613 21.5625 261.918 21.5625C262.243 21.5625 262.507 21.4505 262.707 21.2266C262.908 20.9948 263.008 20.7005 263.008 20.3438C263.008 19.987 262.908 19.6927 262.707 19.4609C262.507 19.2344 262.246 19.1211 261.926 19.1211C261.624 19.1211 261.371 19.2357 261.168 19.4648C260.967 19.6966 260.867 19.9831 260.867 20.3242ZM265.824 18.4336V22.2383H264.945V18.4336H265.824ZM264.812 16.8516C264.812 16.6979 264.868 16.5651 264.98 16.4531C265.092 16.3411 265.227 16.2852 265.383 16.2852C265.542 16.2852 265.677 16.3411 265.789 16.4531C265.901 16.5625 265.957 16.6966 265.957 16.8555C265.957 17.0143 265.901 17.1497 265.789 17.2617C265.68 17.3737 265.546 17.4297 265.387 17.4297C265.228 17.4297 265.092 17.3737 264.98 17.2617C264.868 17.1497 264.812 17.013 264.812 16.8516ZM267.816 15.6406V22.2383H266.938V15.6406H267.816Z" fill="#EFEFEF"/>
<rect x="240.75" width="11" height="11.2383" rx="5.5" fill="#62C6B7"/>
<path d="M245.767 6.69434C245.825 6.75293 245.925 6.75293 245.983 6.69434L247.706 4.97168C247.765 4.91309 247.765 4.81348 247.706 4.75488L247.495 4.54395C247.437 4.48535 247.343 4.48535 247.284 4.54395L245.878 5.9502L245.216 5.29395C245.157 5.23535 245.063 5.23535 245.005 5.29395L244.794 5.50488C244.735 5.56348 244.735 5.66309 244.794 5.72168L245.767 6.69434Z" fill="white"/>
<path d="M320.883 19.7891V22.2383H319.973V16.207H321.004C321.509 16.207 321.891 16.2422 322.148 16.3125C322.409 16.3828 322.638 16.5156 322.836 16.7109C323.182 17.0495 323.355 17.4766 323.355 17.9922C323.355 18.5443 323.171 18.9818 322.801 19.3047C322.431 19.6276 321.932 19.7891 321.305 19.7891H320.883ZM320.883 18.9453H321.223C322.059 18.9453 322.477 18.6237 322.477 17.9805C322.477 17.3581 322.046 17.0469 321.184 17.0469H320.883V18.9453ZM326.711 18.4336H327.594V22.2383H326.711V21.8398C326.349 22.1784 325.96 22.3477 325.543 22.3477C325.017 22.3477 324.582 22.1576 324.238 21.7773C323.897 21.3893 323.727 20.9049 323.727 20.3242C323.727 19.7539 323.897 19.2786 324.238 18.8984C324.579 18.5182 325.007 18.3281 325.52 18.3281C325.962 18.3281 326.359 18.5104 326.711 18.875V18.4336ZM324.625 20.3242C324.625 20.6888 324.723 20.9857 324.918 21.2148C325.118 21.4466 325.371 21.5625 325.676 21.5625C326.001 21.5625 326.264 21.4505 326.465 21.2266C326.665 20.9948 326.766 20.7005 326.766 20.3438C326.766 19.987 326.665 19.6927 326.465 19.4609C326.264 19.2344 326.004 19.1211 325.684 19.1211C325.382 19.1211 325.129 19.2357 324.926 19.4648C324.725 19.6966 324.625 19.9831 324.625 20.3242ZM329.973 21.5312L328.262 18.4336H329.281L330.445 20.6211L331.531 18.4336H332.523L329.492 24.3086H328.488L329.973 21.5312ZM333.125 18.4336H334.004V18.7852C334.173 18.6081 334.318 18.4883 334.438 18.4258C334.565 18.3607 334.725 18.3281 334.918 18.3281C335.348 18.3281 335.688 18.5156 335.938 18.8906C336.214 18.5156 336.587 18.3281 337.059 18.3281C337.915 18.3281 338.344 18.8477 338.344 19.8867V22.2383H337.461V20.125C337.461 19.7604 337.417 19.5026 337.328 19.3516C337.237 19.1979 337.087 19.1211 336.879 19.1211C336.637 19.1211 336.46 19.2122 336.348 19.3945C336.238 19.5768 336.184 19.8698 336.184 20.2734V22.2383H335.301V20.1367C335.301 19.4596 335.105 19.1211 334.715 19.1211C334.467 19.1211 334.286 19.2135 334.172 19.3984C334.06 19.5833 334.004 19.875 334.004 20.2734V22.2383H333.125V18.4336ZM342.918 20.543H340.191C340.215 20.8555 340.316 21.1042 340.496 21.2891C340.676 21.4714 340.906 21.5625 341.188 21.5625C341.406 21.5625 341.587 21.5104 341.73 21.4062C341.871 21.3021 342.031 21.1094 342.211 20.8281L342.953 21.2422C342.839 21.4375 342.717 21.6055 342.59 21.7461C342.462 21.8841 342.326 21.9987 342.18 22.0898C342.034 22.1784 341.876 22.2435 341.707 22.2852C341.538 22.3268 341.354 22.3477 341.156 22.3477C340.589 22.3477 340.133 22.1654 339.789 21.8008C339.445 21.4336 339.273 20.9466 339.273 20.3398C339.273 19.7383 339.44 19.2513 339.773 18.8789C340.109 18.5117 340.555 18.3281 341.109 18.3281C341.669 18.3281 342.112 18.5065 342.438 18.8633C342.76 19.2174 342.922 19.7083 342.922 20.3359L342.918 20.543ZM342.016 19.8242C341.893 19.3555 341.598 19.1211 341.129 19.1211C341.022 19.1211 340.922 19.138 340.828 19.1719C340.734 19.2031 340.648 19.25 340.57 19.3125C340.495 19.3724 340.43 19.4453 340.375 19.5312C340.32 19.6172 340.279 19.7148 340.25 19.8242H342.016ZM343.883 18.4336H344.766V18.7852C345.073 18.4805 345.419 18.3281 345.805 18.3281C346.247 18.3281 346.592 18.4674 346.84 18.7461C347.053 18.9831 347.16 19.3698 347.16 19.9062V22.2383H346.277V20.1133C346.277 19.7383 346.225 19.4792 346.121 19.3359C346.02 19.1901 345.835 19.1172 345.566 19.1172C345.275 19.1172 345.068 19.2135 344.945 19.4062C344.826 19.5964 344.766 19.9284 344.766 20.4023V22.2383H343.883V18.4336ZM349.18 19.2539V22.2383H348.301V19.2539H347.926V18.4336H348.301V17.0391H349.18V18.4336H349.863V19.2539H349.18Z" fill="#2F626E"/>
<rect x="329.75" width="11" height="11.2383" rx="5.5" fill="#62C6B7"/>
<path d="M334.767 6.69434C334.825 6.75293 334.925 6.75293 334.983 6.69434L336.706 4.97168C336.765 4.91309 336.765 4.81348 336.706 4.75488L336.495 4.54395C336.437 4.48535 336.343 4.48535 336.284 4.54395L334.878 5.9502L334.216 5.29395C334.157 5.23535 334.063 5.23535 334.005 5.29395L333.794 5.50488C333.735 5.56348 333.735 5.66309 333.794 5.72168L334.767 6.69434Z" fill="white"/>
</svg>
