<?xml version="1.0" standalone="no"?>
<!DOCTYPE svg PUBLIC "-//W3C//DTD SVG 20010904//EN"
 "http://www.w3.org/TR/2001/REC-SVG-20010904/DTD/svg10.dtd">
<svg version="1.0" xmlns="http://www.w3.org/2000/svg"
 width="346.000000pt" height="346.000000pt" viewBox="0 0 346.000000 346.000000"
 preserveAspectRatio="xMidYMid meet">
<metadata>
Created by potrace 1.14, written by Peter Selinger 2001-2017
</metadata>
<g transform="translate(0.000000,346.000000) scale(0.100000,-0.100000)"
fill="#000000" stroke="none">
<path d="M1767 2917 c4 -6 -5 -8 -20 -5 -15 3 -31 0 -37 -7 -6 -7 -22 -12 -35
-10 -14 1 -22 -1 -20 -5 3 -4 -10 -11 -28 -15 -17 -4 -34 -8 -37 -9 -3 -1 -9
-4 -15 -7 -5 -4 -20 -5 -32 -4 -12 1 -20 -2 -17 -7 3 -4 -1 -8 -8 -9 -12 0
-36 -4 -70 -11 -7 -2 -16 -7 -19 -12 -4 -4 -21 -9 -38 -10 -21 0 -30 -5 -26
-14 3 -9 0 -10 -15 -2 -14 7 -20 7 -20 0 0 -5 -6 -9 -12 -8 -7 2 -12 -3 -10
-11 2 -11 0 -12 -11 -2 -12 9 -16 9 -20 -2 -3 -8 3 -20 13 -27 11 -8 17 -17
15 -21 -3 -4 2 -9 10 -13 8 -3 15 -13 15 -21 0 -9 5 -13 10 -10 6 3 10 -3 10
-15 0 -12 5 -18 10 -15 6 3 10 -3 10 -14 0 -12 5 -21 11 -21 7 0 9 -9 6 -21
-3 -12 -3 -18 0 -15 4 3 15 -6 25 -21 10 -16 18 -22 18 -14 0 8 6 11 15 7 8
-3 15 -1 15 5 0 6 4 8 9 4 5 -3 12 -1 16 5 4 6 10 8 15 5 5 -3 11 -1 15 4 3 6
12 8 20 4 8 -3 15 0 15 5 0 6 8 11 18 11 35 1 82 14 82 23 0 5 5 6 10 3 6 -4
8 -10 5 -15 -3 -5 0 -12 6 -16 8 -4 7 -9 -2 -15 -12 -8 -11 -11 1 -19 12 -8
12 -10 1 -10 -11 0 -11 -3 -1 -15 10 -12 10 -15 0 -15 -9 0 -9 -4 1 -17 10
-11 10 -14 2 -9 -7 4 -13 3 -13 -3 0 -5 4 -12 10 -16 6 -3 6 -15 0 -30 -6 -16
-5 -25 3 -29 8 -3 8 -5 -2 -5 -11 -1 -11 -4 -1 -16 9 -11 9 -15 1 -15 -7 0 -9
-5 -4 -12 10 -18 13 -39 4 -33 -12 7 -8 -69 4 -77 6 -5 5 -8 -3 -8 -8 0 -10
-5 -6 -12 11 -17 12 -48 2 -42 -4 3 -8 0 -8 -5 0 -6 6 -11 13 -11 9 0 8 -3 -2
-9 -9 -6 -10 -11 -2 -15 7 -4 7 -15 1 -31 -6 -16 -5 -25 3 -29 9 -3 8 -5 -1
-5 -8 -1 -10 -6 -6 -13 11 -17 12 -48 2 -42 -4 3 -8 0 -8 -5 0 -6 6 -11 13
-11 9 0 8 -3 -2 -9 -9 -6 -10 -11 -2 -15 7 -4 7 -15 1 -31 -6 -16 -5 -25 3
-29 8 -3 8 -5 -2 -5 -11 -1 -11 -4 -1 -16 10 -12 10 -15 0 -15 -10 0 -10 -3
-1 -14 9 -10 9 -16 1 -21 -8 -5 -5 -12 7 -21 16 -13 16 -14 1 -8 -10 3 -18 1
-18 -5 0 -6 6 -11 13 -11 9 0 8 -3 -2 -9 -10 -6 -10 -10 -1 -16 9 -6 9 -10 -1
-17 -11 -8 -11 -11 -1 -15 10 -4 10 -8 1 -19 -9 -11 -8 -14 2 -14 9 0 10 -3 4
-8 -14 -10 -15 -42 -1 -42 7 0 7 -3 1 -8 -5 -4 -10 -18 -10 -32 0 -14 5 -28
10 -32 6 -5 5 -8 -2 -8 -19 0 -16 -18 5 -23 16 -4 16 -5 -1 -6 -15 -1 -16 -4
-6 -22 8 -15 8 -19 0 -15 -6 4 -11 2 -11 -3 0 -6 5 -11 11 -11 8 0 8 -4 0 -14
-8 -10 -9 -16 -1 -21 7 -4 7 -12 0 -26 -8 -14 -7 -19 2 -19 8 0 9 -3 3 -8 -15
-11 -12 -55 5 -70 13 -10 13 -11 -2 -6 -10 3 -18 1 -18 -5 0 -6 6 -11 13 -11
9 0 8 -3 -2 -9 -10 -6 -10 -10 -1 -16 9 -6 9 -10 -1 -17 -11 -8 -11 -11 -1
-15 10 -4 10 -8 1 -19 -9 -11 -8 -14 2 -14 11 0 11 -2 -1 -10 -13 -9 -13 -11
0 -20 13 -8 13 -10 0 -10 -10 0 -11 -3 -3 -11 8 -8 8 -20 3 -35 -6 -15 -5 -24
3 -28 9 -3 8 -5 -1 -5 -8 -1 -10 -6 -6 -13 11 -17 12 -68 2 -62 -4 3 -8 1 -8
-5 0 -5 4 -12 10 -16 6 -3 6 -15 0 -30 -6 -16 -5 -25 3 -29 8 -3 8 -5 -2 -5
-11 -1 -11 -4 -1 -16 10 -12 10 -15 0 -15 -10 0 -10 -3 -1 -14 9 -10 9 -16 1
-21 -8 -5 -5 -12 7 -21 16 -13 16 -14 1 -8 -20 7 -25 -12 -5 -19 9 -4 9 -6 -1
-6 -10 -1 -10 -6 -1 -22 8 -15 8 -19 0 -15 -6 4 -11 2 -11 -3 0 -6 5 -11 11
-11 8 0 8 -5 -1 -15 -10 -12 -10 -15 1 -15 9 0 10 -3 4 -8 -5 -4 -10 -14 -10
-22 0 -8 5 -18 10 -22 6 -5 5 -8 -3 -8 -6 0 -11 -3 -11 -7 4 -26 -2 -33 -20
-24 -10 6 -21 7 -25 4 -3 -3 -6 -1 -6 5 0 6 -9 9 -20 7 -11 -2 -20 1 -20 6 0
6 -5 7 -10 4 -6 -3 -10 -1 -10 5 0 7 -6 10 -12 7 -7 -2 -36 4 -65 14 -28 9
-54 15 -57 12 -3 -4 -6 -1 -6 5 0 7 -13 12 -30 12 -16 0 -30 4 -30 9 0 6 -9 8
-20 6 -11 -2 -20 1 -20 6 0 6 -5 7 -10 4 -6 -4 -17 -1 -25 5 -8 7 -22 10 -30
6 -10 -3 -15 1 -15 12 0 15 -2 15 -10 2 -7 -11 -10 -11 -10 -2 0 7 -4 11 -8 8
-5 -3 -20 1 -35 9 -19 9 -27 10 -27 2 0 -6 -7 -2 -15 9 -11 14 -14 15 -15 4 0
-12 -2 -13 -9 -1 -5 7 -14 10 -20 7 -6 -4 -11 -2 -11 3 0 6 -3 10 -7 10 -18
-3 -34 2 -30 9 3 4 -7 8 -21 9 -34 2 -62 8 -84 17 -9 4 -22 8 -30 10 -7 1 -17
4 -23 8 -5 3 -26 9 -45 13 -19 4 -41 12 -49 19 -12 9 -13 8 -7 -4 4 -8 0 -6
-8 4 -12 15 -16 16 -16 5 -1 -10 -4 -8 -11 5 -9 14 -8 20 2 27 11 7 11 9 1 9
-9 0 -11 14 -9 46 2 25 -1 48 -6 51 -5 3 -3 9 4 13 10 7 10 12 -2 26 -8 10 -9
15 -4 12 12 -7 13 92 1 110 -3 6 0 12 6 15 10 3 9 8 -2 22 -8 10 -10 16 -5 13
12 -7 13 92 1 110 -3 6 0 12 6 15 10 3 9 8 -2 22 -12 15 -12 17 -1 10 11 -6
13 -4 8 9 -4 10 -7 27 -7 39 0 19 -6 22 -51 24 -28 1 -58 8 -67 15 -12 9 -14
10 -8 1 4 -7 3 -13 -3 -13 -5 0 -13 5 -17 11 -4 8 -9 7 -15 -2 -7 -11 -9 -11
-9 -1 0 7 -5 10 -10 7 -6 -3 -10 -1 -10 6 0 7 -3 9 -6 6 -4 -3 -16 -1 -27 4
-14 8 -22 8 -27 -1 -4 -6 -8 -172 -8 -368 0 -343 5 -412 30 -412 5 0 8 -7 8
-16 0 -8 5 -12 10 -9 5 3 10 1 10 -5 0 -6 5 -8 10 -5 6 3 10 1 10 -4 0 -6 8
-11 18 -11 10 0 23 -5 30 -12 9 -9 12 -9 12 3 1 12 3 12 13 -1 7 -9 21 -15 32
-15 11 0 25 -4 32 -8 7 -5 17 -6 22 -3 5 4 13 1 17 -5 5 -8 3 -9 -6 -4 -9 5
-11 4 -6 -4 6 -9 11 -9 22 0 10 8 14 8 14 0 0 -6 3 -10 8 -9 4 0 14 -1 22 -4
58 -22 124 -37 133 -31 5 3 7 1 4 -4 -4 -6 0 -14 9 -17 10 -4 13 -2 8 7 -5 7
0 5 11 -3 10 -8 20 -14 22 -12 8 6 24 1 19 -7 -3 -4 6 -6 19 -3 15 2 25 0 25
-7 0 -6 5 -11 11 -11 5 0 7 5 4 10 -4 6 10 1 30 -10 19 -11 46 -20 60 -20 13
0 27 -5 31 -11 3 -6 15 -9 25 -6 11 3 19 1 19 -5 0 -5 4 -7 9 -3 5 3 12 1 15
-4 3 -4 17 -8 32 -8 14 -1 30 -6 34 -13 4 -7 12 -10 18 -6 6 3 13 2 17 -3 3
-6 26 -13 50 -17 25 -3 45 -10 45 -14 0 -5 11 -7 25 -6 14 2 30 -3 36 -10 6
-7 17 -10 25 -7 8 3 14 0 14 -5 0 -6 9 -9 20 -7 11 2 20 0 20 -4 0 -4 6 -8 13
-9 50 -7 62 -11 59 -22 -3 -11 0 -11 12 0 10 8 16 9 16 2 0 -6 6 -9 14 -6 8 3
17 0 21 -5 3 -6 11 -9 16 -6 5 4 9 2 9 -3 0 -6 9 -8 20 -5 11 3 20 1 20 -5 0
-5 7 -13 16 -16 8 -3 13 -2 10 3 -3 5 3 11 14 14 11 3 20 0 20 -5 0 -6 6 -5
15 2 8 7 15 9 15 4 0 -5 5 -1 11 8 5 9 15 15 23 12 7 -3 26 0 42 7 16 6 40 13
54 16 13 2 29 8 35 12 5 5 18 7 28 6 9 -2 17 1 17 7 0 6 7 8 15 4 8 -3 31 3
50 14 24 13 35 16 35 7 0 -9 3 -8 9 1 4 8 12 14 17 15 5 1 8 6 6 10 -1 4 7 3
18 -3 13 -7 20 -7 20 0 0 5 14 10 30 10 17 0 30 5 30 11 0 5 5 7 10 4 6 -3 10
-2 10 2 0 5 13 8 30 7 16 -1 27 2 24 7 -4 8 34 14 59 10 5 -1 6 3 2 9 -4 6 8
10 29 10 20 0 36 4 36 9 0 5 12 11 28 14 63 12 87 19 99 28 7 6 16 8 21 5 5
-3 21 2 36 9 16 8 32 12 37 9 5 -3 9 0 9 7 0 7 3 9 7 6 3 -4 17 0 31 9 13 9
21 11 18 5 -4 -6 -2 -11 3 -11 6 0 11 5 11 11 0 6 6 9 14 6 8 -3 17 -3 21 1 4
4 11 8 16 8 5 1 11 3 14 4 3 1 10 4 15 5 6 1 12 4 15 5 3 1 8 3 13 4 4 1 22 6
40 10 17 4 32 11 32 15 0 5 11 7 25 6 14 -2 25 1 25 6 0 5 9 9 19 9 10 0 22 7
25 16 3 8 10 13 15 9 9 -5 27 32 23 48 -1 4 2 7 7 7 5 0 11 25 13 55 1 30 1
55 -2 55 -5 0 -3 164 3 213 2 15 1 27 -2 27 -6 0 -4 160 2 213 2 15 1 27 -2
27 -6 0 -4 114 3 143 2 9 1 17 -2 17 -7 0 -6 156 1 213 2 15 1 27 -2 27 -6 0
-4 160 2 213 2 15 1 27 -2 27 -6 0 -4 114 3 143 2 9 1 17 -2 17 -4 0 -6 63 -5
139 l2 139 -29 30 c-15 17 -27 33 -24 36 2 3 1 4 -3 1 -3 -3 -15 2 -25 12 -13
11 -18 12 -18 3 0 -10 -3 -10 -15 0 -8 7 -21 10 -30 6 -8 -3 -14 0 -12 6 1 7
-7 13 -18 15 -35 4 -54 9 -61 16 -4 4 -18 7 -30 7 -13 0 -26 5 -29 11 -4 6
-14 8 -22 5 -9 -4 -22 -1 -29 5 -8 6 -23 9 -34 6 -11 -3 -18 0 -17 7 1 6 -4
10 -12 8 -8 -2 -17 1 -20 7 -4 5 -12 6 -20 2 -10 -6 -13 -76 -14 -317 l-2
-309 -37 0 c-30 0 -34 2 -25 14 10 12 9 13 -9 3 -12 -6 -26 -7 -34 -2 -8 5
-17 7 -21 4 -4 -2 -10 0 -14 6 -4 7 -12 7 -25 0 -13 -7 -21 -6 -30 5 -9 11
-17 12 -31 4 -15 -8 -21 -6 -25 6 -4 9 -13 13 -24 10 -13 -4 -17 0 -16 17 1
13 -2 31 -7 42 -6 12 -6 16 2 12 11 -7 6 77 -6 97 -3 5 -1 7 4 4 13 -8 11 73
-2 93 -5 9 -4 11 3 6 9 -5 10 3 6 31 -3 21 -8 42 -12 47 -3 5 0 6 6 2 16 -10
15 16 0 33 -10 10 -10 12 -1 7 9 -5 11 5 7 40 -2 26 -7 51 -11 57 -3 5 -1 7 4
4 13 -8 11 73 -2 93 -5 8 -4 11 2 7 6 -4 10 9 9 33 -1 22 -5 40 -9 40 -5 0 -6
4 -2 9 3 6 -4 8 -15 6 -11 -2 -27 3 -35 11 -11 12 -15 12 -15 2 0 -10 -3 -9
-10 2 -5 8 -10 12 -10 7 0 -4 -13 -1 -30 8 -35 18 -44 19 -34 3 6 -9 3 -9 -9
0 -9 8 -21 11 -27 7 -6 -4 -9 -1 -8 6 2 7 -1 13 -7 14 -5 0 -16 4 -24 9 -9 6
-12 5 -8 -1 4 -6 -15 -3 -42 7 -27 11 -51 16 -55 13 -3 -4 -6 -1 -6 4 0 6 -8
10 -17 9 -10 -2 -21 1 -24 5 -3 5 -17 10 -32 11 -15 1 -27 6 -27 10 0 4 -7 5
-15 2 -9 -4 -18 1 -21 11 -5 13 -9 14 -15 3 -6 -8 -9 -9 -9 -1 0 6 -9 9 -20 6
-11 -3 -20 -1 -20 5 0 12 -18 11 -39 -2 -9 -6 -12 -5 -8 1 3 5 0 10 -8 10 -8
0 -11 -5 -8 -10z"/>
<path d="M727 2844 c-2 -3 -21 -5 -41 -6 -20 -1 -36 -5 -36 -10 0 -4 -5 -8
-11 -8 -5 0 -7 5 -3 12 5 7 3 8 -7 2 -14 -8 -27 -12 -64 -19 -11 -2 -22 -4
-25 -5 -3 -1 -9 -2 -13 -1 -5 1 -6 -3 -2 -9 5 -9 -15 -15 -37 -11 -5 0 -8 -3
-8 -9 0 -5 -6 -10 -13 -10 -7 0 -22 -8 -33 -17 -10 -10 -36 -29 -56 -43 -20
-13 -34 -28 -32 -32 3 -4 1 -8 -3 -8 -5 0 -18 -7 -29 -16 -10 -8 -12 -12 -4
-8 8 4 2 -5 -13 -19 -15 -15 -25 -32 -22 -37 3 -6 -1 -7 -9 -4 -11 4 -16 0
-16 -15 0 -12 -5 -21 -11 -21 -5 0 -7 -4 -4 -10 3 -5 1 -10 -5 -10 -6 0 -8 -4
-5 -10 3 -5 1 -10 -4 -10 -6 0 -11 -6 -11 -13 0 -7 -5 -18 -12 -25 -10 -10
-14 -28 -20 -89 -1 -13 -6 -23 -11 -23 -4 0 -5 -4 -2 -10 3 -5 1 -10 -5 -10
-8 0 -8 -6 0 -20 6 -11 7 -20 2 -20 -10 0 -9 -30 2 -48 4 -7 2 -12 -4 -12 -7
0 -8 -6 -1 -18 6 -11 6 -24 1 -32 -5 -8 -5 -19 0 -26 6 -6 11 -24 14 -40 6
-48 18 -84 28 -84 5 0 6 -4 3 -10 -6 -9 21 -68 37 -80 3 -3 8 -12 10 -19 2 -8
17 -30 35 -49 18 -20 29 -40 26 -45 -3 -6 -1 -7 5 -3 7 4 12 2 12 -4 0 -5 13
-18 30 -29 16 -10 27 -20 24 -23 -3 -3 9 -10 25 -16 17 -6 31 -15 31 -19 0 -5
16 -15 35 -22 19 -7 35 -16 35 -20 0 -3 8 -7 18 -8 27 -2 47 -7 52 -14 3 -4
19 -8 35 -10 17 -2 36 -8 44 -14 10 -7 13 -7 9 0 -4 6 2 11 12 11 12 0 16 -4
10 -11 -6 -7 4 -9 31 -7 22 2 46 -1 54 -8 12 -10 15 -10 15 0 0 9 4 9 13 2 6
-5 31 -9 54 -8 23 0 41 -1 41 -4 -1 -18 4 -21 16 -11 10 8 16 9 21 1 3 -5 24
-10 46 -10 27 0 38 -4 33 -11 -4 -8 0 -8 15 0 16 9 21 9 21 0 0 -7 10 -9 25
-7 14 3 25 1 25 -6 0 -6 5 -4 10 4 9 13 14 7 11 -12 0 -4 6 -5 14 -2 8 4 12
10 9 15 -3 5 2 6 10 3 9 -3 16 -10 16 -15 0 -5 3 -8 8 -7 4 1 36 -2 72 -7 73
-9 103 -8 108 6 2 5 8 7 13 3 5 -3 12 2 15 10 3 9 10 14 14 11 4 -3 11 10 15
28 10 46 13 87 5 87 -4 0 -7 12 -7 28 -1 63 -8 112 -16 112 -5 0 -4 7 3 15 10
12 9 16 -4 21 -9 3 -13 10 -10 15 3 5 11 6 17 2 7 -3 5 2 -3 13 -9 10 -15 36
-15 57 1 20 -4 37 -10 37 -5 0 -3 5 5 10 8 5 10 10 4 10 -7 0 -12 19 -13 43
-1 38 -7 82 -11 82 -1 0 -3 10 -4 23 -2 12 2 22 8 22 7 0 6 4 -2 8 -7 5 -13
32 -13 65 -1 34 -6 57 -13 57 -6 0 -4 5 4 10 10 6 11 10 3 10 -7 0 -13 10 -13
23 1 36 -5 60 -23 95 -10 17 -14 32 -10 32 5 0 0 5 -10 11 -9 6 -15 14 -12 20
4 5 1 9 -4 9 -6 0 -11 7 -11 15 0 8 -5 15 -11 15 -5 0 -8 4 -5 8 3 5 -4 15
-15 22 -10 8 -19 20 -19 27 0 7 -3 13 -7 13 -14 0 -73 57 -73 70 0 8 -3 11 -6
7 -4 -3 -13 1 -21 9 -8 8 -19 12 -24 9 -5 -4 -9 1 -9 9 0 8 -5 18 -12 22 -6 4
-8 3 -5 -4 5 -6 -2 -6 -18 1 -14 7 -25 15 -25 20 0 4 -8 7 -18 7 -10 0 -23 5
-30 12 -7 7 -12 8 -12 4 0 -5 -12 -1 -26 9 -18 11 -24 12 -18 4 6 -11 5 -12
-8 -2 -8 7 -18 10 -21 6 -4 -3 -7 -2 -7 4 0 5 -7 10 -15 10 -8 0 -15 -5 -15
-11 0 -5 -6 -2 -13 9 -9 11 -16 14 -20 8 -4 -7 -20 -8 -41 -3 -19 4 -37 6 -39
4z m-20 -347 c-4 6 16 11 44 12 38 1 49 -2 43 -11 -5 -10 -4 -10 6 -1 9 9 20
7 45 -7 18 -10 36 -16 39 -13 3 4 6 1 6 -6 0 -7 5 -9 10 -6 6 3 10 -1 10 -10
0 -9 5 -13 10 -10 6 3 10 -2 10 -11 0 -10 3 -15 6 -11 8 8 33 -16 27 -25 -2
-5 1 -8 7 -8 6 0 8 -4 5 -10 -3 -5 -1 -10 4 -10 6 0 11 -9 11 -20 0 -11 5 -20
11 -20 6 0 9 -6 6 -14 -3 -7 1 -23 9 -35 13 -18 13 -20 -1 -15 -13 5 -14 2 -6
-19 5 -14 8 -27 6 -29 -2 -2 -6 -16 -9 -31 -9 -49 -17 -67 -28 -61 -7 4 -8 2
-4 -4 8 -14 -17 -55 -27 -45 -4 3 -7 -1 -7 -10 0 -9 -5 -17 -10 -17 -6 0 -21
-11 -33 -23 -12 -13 -27 -22 -34 -20 -6 2 -14 0 -17 -6 -4 -6 -14 -7 -23 -4
-9 4 -14 2 -10 -3 4 -7 -13 -10 -43 -8 -34 1 -48 -2 -43 -10 3 -6 0 -6 -8 2
-7 6 -21 12 -31 12 -10 0 -18 4 -18 8 0 4 -10 8 -21 9 -12 1 -30 11 -41 23
-10 11 -23 18 -29 15 -5 -4 -9 -1 -9 6 0 6 -8 19 -18 28 -19 16 -36 50 -34 64
1 4 -3 7 -9 7 -6 0 -9 7 -5 15 3 8 1 15 -5 15 -6 0 -9 7 -5 15 3 8 0 15 -7 15
-8 0 -8 3 2 9 9 6 10 11 3 15 -6 4 -8 14 -5 22 3 9 7 23 8 32 6 46 18 81 28
75 6 -3 7 -1 3 5 -4 6 2 21 13 34 11 13 27 32 36 43 9 11 14 13 10 5 -4 -8 2
-5 13 7 11 12 22 19 26 16 3 -4 6 -1 6 5 0 7 9 12 20 12 11 0 20 5 20 10 0 7
7 7 21 -1 12 -6 19 -7 16 -2z"/>
</g>
</svg>
