<svg width="15" height="15" viewBox="0 0 15 15" fill="none" xmlns="http://www.w3.org/2000/svg">
<path d="M1.875 7.5H7.5V8.4375H1.875V7.5Z" fill="#62C6B7"/>
<path d="M0.9375 5.15625H5.625V6.09375H0.9375V5.15625Z" fill="#62C6B7"/>
<path d="M14.0247 7.78406L12.6185 4.50281C12.5824 4.41847 12.5223 4.34659 12.4457 4.29609C12.3692 4.24559 12.2794 4.2187 12.1877 4.21875H10.7814V3.28125C10.7814 3.15693 10.7321 3.0377 10.6441 2.94979C10.5562 2.86189 10.437 2.8125 10.3127 2.8125H2.81269V3.75H9.84394V9.63562C9.63034 9.75965 9.44341 9.92474 9.29393 10.1214C9.14445 10.318 9.03538 10.5423 8.973 10.7812H6.02737C5.91328 10.3394 5.64195 9.95429 5.26425 9.69816C4.88654 9.44202 4.42838 9.33244 3.97566 9.38994C3.52293 9.44745 3.10672 9.66809 2.80504 10.0105C2.50335 10.3529 2.33691 10.7936 2.33691 11.25C2.33691 11.7064 2.50335 12.1471 2.80504 12.4895C3.10672 12.8319 3.52293 13.0526 3.97566 13.1101C4.42838 13.1676 4.88654 13.058 5.26425 12.8018C5.64195 12.5457 5.91328 12.1606 6.02737 11.7188H8.973C9.07497 12.121 9.30817 12.4779 9.63571 12.7327C9.96324 12.9876 10.3664 13.126 10.7814 13.126C11.1965 13.126 11.5996 12.9876 11.9272 12.7327C12.2547 12.4779 12.4879 12.121 12.5899 11.7188H13.5939C13.7183 11.7188 13.8375 11.6694 13.9254 11.5815C14.0133 11.4935 14.0627 11.3743 14.0627 11.25V7.96875C14.0627 7.90525 14.0498 7.84241 14.0247 7.78406ZM4.21894 12.1875C4.03352 12.1875 3.85226 12.1325 3.69809 12.0295C3.54392 11.9265 3.42376 11.7801 3.3528 11.6088C3.28184 11.4375 3.26328 11.249 3.29945 11.0671C3.33562 10.8852 3.42491 10.7182 3.55602 10.5871C3.68714 10.456 3.85418 10.3667 4.03604 10.3305C4.2179 10.2943 4.4064 10.3129 4.5777 10.3839C4.74901 10.4548 4.89543 10.575 4.99844 10.7292C5.10145 10.8833 5.15644 11.0646 5.15644 11.25C5.15619 11.4986 5.05734 11.7369 4.88158 11.9126C4.70581 12.0884 4.4675 12.1873 4.21894 12.1875ZM10.7814 5.15625H11.8783L12.8833 7.5H10.7814V5.15625ZM10.7814 12.1875C10.596 12.1875 10.4148 12.1325 10.2606 12.0295C10.1064 11.9265 9.98626 11.7801 9.9153 11.6088C9.84434 11.4375 9.82578 11.249 9.86195 11.0671C9.89813 10.8852 9.98741 10.7182 10.1185 10.5871C10.2496 10.456 10.4167 10.3667 10.5985 10.3305C10.7804 10.2943 10.9689 10.3129 11.1402 10.3839C11.3115 10.4548 11.4579 10.575 11.5609 10.7292C11.664 10.8833 11.7189 11.0646 11.7189 11.25C11.7187 11.4986 11.6198 11.7369 11.4441 11.9126C11.2683 12.0884 11.03 12.1873 10.7814 12.1875ZM13.1252 10.7812H12.5899C12.4866 10.3797 12.253 10.0238 11.9258 9.76934C11.5985 9.51485 11.196 9.37615 10.7814 9.375V8.4375H13.1252V10.7812Z" fill="#62C6B7"/>
</svg>
