<svg width="14" height="13" viewBox="0 0 14 13" fill="none" xmlns="http://www.w3.org/2000/svg">
<path d="M12.882 2.63617L8.19454 0.0580448C8.12532 0.0199666 8.04761 0 7.9686 0C7.8896 0 7.81188 0.0199666 7.74267 0.0580448L3.05517 2.63617C2.98167 2.67663 2.92039 2.73608 2.8777 2.80831C2.83502 2.88054 2.8125 2.9629 2.8125 3.04679C2.8125 3.13069 2.83502 3.21305 2.8777 3.28528C2.92039 3.35751 2.98167 3.41695 3.05517 3.45742L7.49985 5.90195V10.9265L6.07673 10.1437L5.62485 10.9645L7.74267 12.1293C7.81186 12.1675 7.88959 12.1875 7.9686 12.1875C8.04762 12.1875 8.12535 12.1675 8.19454 12.1293L12.882 9.55117C12.9556 9.51072 13.0169 9.45128 13.0596 9.37906C13.1023 9.30683 13.1248 9.22446 13.1249 9.14054V3.04679C13.1248 2.96288 13.1023 2.88051 13.0596 2.80828C13.0169 2.73606 12.9556 2.67661 12.882 2.63617ZM7.9686 1.00398L11.6834 3.04679L7.9686 5.08961L4.25376 3.04679L7.9686 1.00398ZM12.1874 8.86351L8.43735 10.926V5.90148L12.1874 3.83898V8.86351Z" fill="#62C6B7"/>
<path opacity="0.25" d="M5.12281 2.82839L7.90739 1.3489C7.96528 1.31815 8.03456 1.31771 8.09283 1.34773L10.9645 2.82725C11.1071 2.90073 11.1095 3.10379 10.9687 3.18062L8.09707 4.74695C8.03656 4.77995 7.96332 4.77948 7.90324 4.74568L5.11859 3.17932C4.98079 3.1018 4.98318 2.90257 5.12281 2.82839Z" fill="#62C6B7"/>
<path d="M3.75 6.09375H0V5.15625H3.75V6.09375Z" fill="#62C6B7"/>
<path d="M4.6875 9.84375H0.9375V8.90625H4.6875V9.84375Z" fill="#62C6B7"/>
<path d="M5.625 7.96875H1.875V7.03125H5.625V7.96875Z" fill="#62C6B7"/>
<path opacity="0.25" d="M8.59961 10.3014V6.25276C8.59961 6.18051 8.63858 6.11387 8.70155 6.07845L11.7023 4.39033C11.8357 4.31533 12.0004 4.41167 12.0004 4.56464V8.68071C12.0004 8.7542 11.9601 8.82177 11.8954 8.85669L8.89465 10.4774C8.7614 10.5493 8.59961 10.4528 8.59961 10.3014Z" fill="#62C6B7"/>
</svg>
