<svg width="15" height="15" viewBox="0 0 15 15" fill="none" xmlns="http://www.w3.org/2000/svg">
<path d="M7.50719 5.72095C7.06921 5.72095 6.65905 5.89087 6.3485 6.20142C6.03942 6.51196 5.86803 6.92212 5.86803 7.36011C5.86803 7.7981 6.03942 8.20825 6.3485 8.5188C6.65905 8.82788 7.06921 8.99927 7.50719 8.99927C7.94518 8.99927 8.35534 8.82788 8.66588 8.5188C8.97497 8.20825 9.14635 7.7981 9.14635 7.36011C9.14635 6.92212 8.97497 6.51196 8.66588 6.20142C8.51421 6.04857 8.33367 5.92739 8.13476 5.8449C7.93584 5.76242 7.72253 5.72029 7.50719 5.72095ZM13.5467 9.17065L12.5887 8.35181C12.6341 8.07349 12.6576 7.78931 12.6576 7.50659C12.6576 7.22388 12.6341 6.93823 12.5887 6.66138L13.5467 5.84253C13.6191 5.78058 13.6709 5.69806 13.6952 5.60596C13.7196 5.51385 13.7153 5.41652 13.683 5.3269L13.6698 5.28882C13.4061 4.55155 13.0111 3.86815 12.5038 3.27173L12.4774 3.24097C12.4158 3.16853 12.3337 3.11646 12.2419 3.09162C12.1501 3.06678 12.053 3.07033 11.9632 3.10181L10.7738 3.52515C10.3343 3.16479 9.84509 2.88062 9.31481 2.68286L9.08483 1.43921C9.06748 1.34552 9.02203 1.25933 8.95453 1.19209C8.88702 1.12484 8.80066 1.07973 8.7069 1.06274L8.66735 1.05542C7.90563 0.917725 7.1029 0.917725 6.34118 1.05542L6.30163 1.06274C6.20787 1.07973 6.12151 1.12484 6.054 1.19209C5.9865 1.25933 5.94105 1.34552 5.9237 1.43921L5.69225 2.68872C5.167 2.88805 4.67769 3.17154 4.24352 3.52808L3.04528 3.10181C2.95558 3.07008 2.85835 3.0664 2.76651 3.09126C2.67467 3.11612 2.59257 3.16833 2.53112 3.24097L2.50475 3.27173C1.99834 3.86878 1.60339 4.55201 1.33874 5.28882L1.32555 5.3269C1.25964 5.51001 1.31383 5.71509 1.46178 5.84253L2.43151 6.67017C2.3861 6.94556 2.36413 7.22681 2.36413 7.50513C2.36413 7.78638 2.3861 8.06763 2.43151 8.34009L1.46471 9.16773C1.39234 9.22968 1.34055 9.31219 1.31621 9.4043C1.29188 9.4964 1.29616 9.59374 1.32848 9.68335L1.34167 9.72144C1.6068 10.4583 1.99792 11.1394 2.50768 11.7385L2.53405 11.7693C2.59565 11.8417 2.67776 11.8938 2.76954 11.9186C2.86133 11.9435 2.95848 11.9399 3.04821 11.9084L4.24645 11.4822C4.68298 11.8411 5.1693 12.1252 5.69518 12.3215L5.92663 13.571C5.94398 13.6647 5.98943 13.7509 6.05693 13.8182C6.12444 13.8854 6.2108 13.9305 6.30456 13.9475L6.34411 13.9548C7.11332 14.0933 7.90107 14.0933 8.67028 13.9548L8.70983 13.9475C8.80359 13.9305 8.88995 13.8854 8.95746 13.8182C9.02496 13.7509 9.07041 13.6647 9.08776 13.571L9.31774 12.3274C9.84801 12.1282 10.3373 11.8455 10.7767 11.4851L11.9662 11.9084C12.0559 11.9402 12.1531 11.9439 12.2449 11.919C12.3368 11.8941 12.4189 11.8419 12.4803 11.7693L12.5067 11.7385C13.0165 11.1365 13.4076 10.4583 13.6727 9.72144L13.6859 9.68335C13.7489 9.50171 13.6947 9.2981 13.5467 9.17065ZM7.50719 9.9353C6.08483 9.9353 4.932 8.78247 4.932 7.36011C4.932 5.93774 6.08483 4.78491 7.50719 4.78491C8.92956 4.78491 10.0824 5.93774 10.0824 7.36011C10.0824 8.78247 8.92956 9.9353 7.50719 9.9353Z" fill="#62C6B7"/>
</svg>
