<svg width="16" height="16" viewBox="0 0 16 16" fill="none" xmlns="http://www.w3.org/2000/svg">
<path d="M12.5 4.99987H3.125V4.62487L11.375 3.96487V4.62487H12.5V3.49987C12.5 2.67487 11.8317 2.09587 11.0157 2.21212L3.485 3.28762C2.66825 3.40462 2 4.17487 2 4.99987V12.4999C2 12.8977 2.15804 13.2792 2.43934 13.5605C2.72064 13.8418 3.10218 13.9999 3.5 13.9999H12.5C12.8978 13.9999 13.2794 13.8418 13.5607 13.5605C13.842 13.2792 14 12.8977 14 12.4999V6.49987C14 6.10204 13.842 5.72051 13.5607 5.43921C13.2794 5.1579 12.8978 4.99987 12.5 4.99987ZM11.375 10.2544C11.2272 10.2543 11.0809 10.2252 10.9444 10.1686C10.8078 10.112 10.6838 10.029 10.5793 9.92449C10.4749 9.81995 10.392 9.69586 10.3355 9.55931C10.279 9.42275 10.25 9.2764 10.25 9.12862C10.25 8.98083 10.2792 8.8345 10.3358 8.69798C10.3924 8.56147 10.4753 8.43743 10.5799 8.33297C10.6844 8.2285 10.8085 8.14565 10.9451 8.08914C11.0816 8.03263 11.228 8.00357 11.3758 8.00362C11.6742 8.00372 11.9604 8.12238 12.1714 8.3335C12.3824 8.54462 12.5008 8.8309 12.5007 9.12937C12.5007 9.42784 12.382 9.71404 12.1709 9.92502C11.9598 10.136 11.6735 10.2545 11.375 10.2544Z" fill="#62C6B7"/>
</svg>
